<?xml version="1.0" standalone="no"?>
<!DOCTYPE svg PUBLIC "-//W3C//DTD SVG 20010904//EN"
 "http://www.w3.org/TR/2001/REC-SVG-20010904/DTD/svg10.dtd">
<svg version="1.0" xmlns="http://www.w3.org/2000/svg"
 width="7016.000000pt" height="9934.000000pt" viewBox="0 0 7016.000000 9934.000000"
 preserveAspectRatio="xMidYMid meet">

<g transform="translate(0.000000,9934.000000) scale(0.100000,-0.100000)"
fill="#000000" stroke="none">
<path d="M13420 74625 l0 -4285 1604 0 1603 0 7 -612 c3 -337 8 -1153 11
-1813 3 -660 8 -1440 11 -1732 l6 -533 879 0 879 0 0 2044 0 2043 3233 7
c1777 3 3838 9 4580 12 l1347 7 0 4268 0 4269 -22 4 c-23 4 -14043 607 -14105
606 l-33 0 0 -4285z"/>
<path d="M45135 76512 c-3 -3 -5 -1037 -5 -2299 l0 -2293 -1575 0 -1575 0 2
-4752 3 -4753 3175 -7 c1746 -4 3806 -11 4578 -14 l1402 -6 0 -2044 0 -2044
879 0 878 0 7 613 c3 336 8 1150 11 1807 3 657 8 1435 11 1728 l6 532 1604 0
1604 0 3 3733 c2 3911 -3 9389 -9 9396 -2 2 -2426 93 -5387 202 -2960 108
-5432 199 -5494 202 -62 2 -115 2 -118 -1z"/>
<path d="M18540 65905 l0 -3675 3805 0 3805 0 0 3675 0 3675 -3805 0 -3805 0
0 -3675z"/>
<path d="M43367 62223 c-4 -3 -7 -1664 -7 -3690 l0 -3683 3785 0 3785 0 0
3690 0 3690 -3778 0 c-2078 0 -3782 -3 -3785 -7z"/>
<path d="M15847 62013 c-4 -3 -7 -784 -7 -1735 l0 -1728 5160 0 5160 0 0 1735
0 1735 -5153 0 c-2835 0 -5157 -3 -5160 -7z"/>
<path d="M15842 56608 l3 -1753 5163 -3 5162 -2 0 1755 0 1755 -5165 0 -5165
0 2 -1752z"/>
<path d="M15847 54663 c-4 -3 -7 -793 -7 -1755 l0 -1748 5165 0 5165 0 -2
1753 -3 1752 -5156 3 c-2836 1 -5159 -1 -5162 -5z"/>
<path d="M43365 54658 c-3 -7 -4 -796 -3 -1753 l3 -1740 5175 0 5175 0 0 1750
0 1750 -5173 3 c-4133 2 -5174 0 -5177 -10z"/>
<path d="M15840 49260 l0 -1770 5160 0 5160 0 0 1770 0 1770 -5160 0 -5160 0
0 -1770z"/>
<path d="M43367 51013 c-4 -3 -7 -798 -7 -1765 l0 -1758 5185 0 5185 0 -2
1763 -3 1762 -5176 3 c-2847 1 -5179 -1 -5182 -5z"/>
<path d="M15845 47298 c-3 -7 -4 -794 -3 -1748 l3 -1735 5163 -3 5162 -2 0
1750 0 1750 -5160 0 c-4119 0 -5162 -3 -5165 -12z"/>
<path d="M43367 47293 c-4 -3 -7 -791 -7 -1750 l0 -1743 5180 0 5180 0 0 1750
0 1750 -5173 0 c-2846 0 -5177 -3 -5180 -7z"/>
<path d="M43362 41393 l3 -2248 5185 0 5185 0 3 2248 2 2247 -5190 0 -5190 0
2 -2247z"/>
<path d="M15840 41331 c0 -1516 3 -2292 10 -2296 6 -4 10 22 10 69 l0 76 5155
0 5155 0 0 2220 0 2220 -5165 0 -5165 0 0 -2289z"/>
<path d="M22400 35920 l0 -3050 1885 0 1885 0 0 3050 0 3050 -1885 0 -1885 0
0 -3050z"/>
<path d="M43367 38963 c-4 -3 -7 -1376 -7 -3050 l0 -3043 1885 0 1885 0 0
3050 0 3050 -1878 0 c-1033 0 -1882 -3 -1885 -7z"/>
<path d="M13380 23995 l0 -5005 3680 0 3680 0 0 5005 0 5005 -3680 0 -3680 0
0 -5005z"/>
<path d="M20927 28993 c-4 -3 -7 -2256 -7 -5005 l0 -4998 3770 0 3770 0 0
5005 0 5005 -3763 0 c-2070 0 -3767 -3 -3770 -7z"/>
<path d="M41060 23995 l0 -5005 3775 0 3775 0 0 5005 0 5005 -3775 0 -3775 0
0 -5005z"/>
<path d="M48790 23995 l0 -5005 3670 0 3670 0 0 5005 0 5005 -3670 0 -3670 0
0 -5005z"/>
</g>
</svg>
