<?xml version="1.0" standalone="no"?>
<!DOCTYPE svg PUBLIC "-//W3C//DTD SVG 20010904//EN" "http://www.w3.org/TR/2001/REC-SVG-20010904/DTD/svg10.dtd"[]>
<svg version="1.0" xmlns="http://www.w3.org/2000/svg" width="7016.000000pt" height="9935.000000pt" viewBox="0 0 0 0" preserveAspectRatio="xMidYMid meet">
  <g transform="translate(0.000000,9935.000000) scale(0.100000,-0.100000)" fill="#000000" stroke="none">
    <path d="M11990 75670 l0 -5390 3385 0 3385 0 0 5264 0 5264 -112 6 c-163 9&#xA;-6510 246 -6590 246 l-68 0 0 -5390z" />
    <path d="M18957 75446 l6 -5326 -1186 0 -1187 0 0 -2045 0 -2045 5170 0 5170&#xA;0 0 7230 c0 3977 -1 7230 -3 7230 -35 0 -7752 271 -7844 275 l-133 7 7 -5326z" />
    <path d="M42320 74490 l0 -5250 4040 0 4040 0 0 5080 0 5080 -22 0 c-13 0&#xA;-1808 77 -3990 170 -2182 94 -3990 170 -4018 170 l-50 0 0 -5250z" />
    <path d="M50600 71181 l0 -8221 3353 2 3352 3 3 8092 2 8091 -82 6 c-46 3&#xA;-1512 58 -3258 121 -1746 63 -3219 117 -3272 121 l-98 6 0 -8221z" />
    <path d="M13300 67075 l0 -3045 1558 2 1557 3 0 3040 0 3040 -1557 3 -1558 2&#xA;0 -3045z" />
    <path d="M42330 63842 l0 -5197 4543 2 c2498 2 4863 6 5255 9 l712 6 -2 2032&#xA;-3 2031 -1217 3 -1218 2 0 3155 0 3155 -4035 0 -4035 0 0 -5198z" />
    <path d="M11990 65305 l0 -1465 -2235 0 -2235 0 2 -4522 3 -4523 2948 -3 2947&#xA;-2 0 4525 0 4525 -150 0 -150 0 0 1465 0 1465 -565 0 -565 0 0 -1465z" />
    <path d="M13610 59320 l0 -4530 6745 0 6745 0 0 4530 0 4530 -6745 0 -6745 0&#xA;0 -4530z" />
    <path d="M56220 59745 l0 -2985 2798 2 2797 3 0 2980 0 2980 -2797 3 -2798 2&#xA;0 -2985z" />
    <path d="M42240 52085 l0 -4475 6743 2 6742 3 0 4470 0 4470 -6742 3 -6743 2&#xA;0 -4475z" />
    <path d="M55920 52085 l0 -4475 2948 2 2947 3 0 4470 0 4470 -2947 3 -2948 2&#xA;0 -4475z" />
    <path d="M7525 54598 c-3 -7 -4 -1581 -3 -3498 l3 -3485 2950 0 2950 0 0 3495&#xA;0 3495 -2948 3 c-2353 2 -2949 0 -2952 -10z" />
    <path d="M13610 51110 l0 -3500 6745 0 6745 0 0 3500 0 3500 -6745 0 -6745 0&#xA;0 -3500z" />
    <path d="M7525 47418 c-3 -7 -4 -1397 -3 -3088 l3 -3075 2950 0 2950 0 0 3085&#xA;0 3085 -2948 3 c-2353 2 -2949 0 -2952 -10z" />
    <path d="M13610 44340 l0 -3090 6017 0 6018 0 702 702 703 703 0 2387 0 2388&#xA;-6720 0 -6720 0 0 -3090z" />
    <path d="M42290 45043 l0 -2388 702 -702 703 -703 6017 0 6018 0 0 3090 0&#xA;3090 -6720 0 -6720 0 0 -2387z" />
    <path d="M55920 44340 l0 -3090 2948 2 2947 3 0 3085 0 3085 -2947 3 -2948 2&#xA;0 -3090z" />
    <path d="M7525 41098 c-3 -7 -4 -1273 -3 -2813 l3 -2800 2950 0 2950 0 0 2810&#xA;0 2810 -2948 3 c-2353 2 -2949 0 -2952 -10z" />
    <path d="M13617 41103 c-4 -3 -7 -1270 -7 -2815 l0 -2808 5235 0 5235 0 0&#xA;2815 0 2815 -5228 0 c-2876 0 -5232 -3 -5235 -7z" />
    <path d="M45260 38295 l0 -2815 5233 2 5232 3 3 2813 2 2812 -5235 0 -5235 0&#xA;0 -2815z" />
    <path d="M55920 38295 l0 -2815 2948 2 2947 3 3 2813 2 2812 -2950 0 -2950 0&#xA;0 -2815z" />
    <path d="M29537 39592 l-1367 -1367 0 -5328 0 -5327 3203 2 3202 3 3 6693 2&#xA;6692 -1838 0 -1837 0 -1368 -1368z" />
    <path d="M34730 34265 l0 -6695 3203 2 3202 3 3 5320 2 5320 -1372 1372 -1373&#xA;1373 -1832 0 -1833 0 0 -6695z" />
    <path d="M7527 35323 c-4 -3 -7 -4958 -7 -11010 l0 -11003 2940 0 c2737 0&#xA;2940 -1 2940 -17 0 -9 3 -14 6 -11 3 3 5 181 4 395 0 213 2 929 6 1589 l7&#xA;1201 6251 7 c3438 3 6801 9 7474 12 l1222 7 0 1838 0 1839 3095 0 3095 0 0&#xA;3590 0 3590 -3285 0 -3285 0 0 1150 0 1150 -6190 0 -6190 0 0 2840 0 2840&#xA;-4038 0 c-2221 0 -4042 -3 -4045 -7z" />
    <path d="M53780 32410 l0 -2760 -6215 0 -6215 0 0 -1150 0 -1150 -3310 0&#xA;-3310 0 0 -3590 0 -3590 3120 0 3120 0 0 -1839 0 -1838 1223 -7 c672 -3 4036&#xA;-9 7475 -12 l6252 -7 0 -456 c0 -741 12 -2726 16 -2730 2 -2 4 3 4 12 0 16&#xA;203 17 2940 17 l2940 0 0 10930 0 10930 -4020 0 -4020 0 0 -2760z" />
  </g>
</svg>