<?xml version="1.0" standalone="no"?>
<!DOCTYPE svg PUBLIC "-//W3C//DTD SVG 20010904//EN"
 "http://www.w3.org/TR/2001/REC-SVG-20010904/DTD/svg10.dtd">
<svg version="1.0" xmlns="http://www.w3.org/2000/svg"
 width="7016.000000pt" height="9922.000000pt" viewBox="0 0 7016.000000 9922.000000"
 preserveAspectRatio="xMidYMid meet">

<g transform="translate(0.000000,9922.000000) scale(0.100000,-0.100000)"
fill="#000000" stroke="none">
<path d="M13460 73865 l0 -3475 5275 0 5275 0 0 3314 c0 1925 -4 3317 -9 3320
-5 3 -2317 73 -5137 155 -2821 82 -5191 152 -5266 156 l-138 6 0 -3476z"/>
<path d="M45536 76102 c-3 -3 -6 -2142 -6 -4754 l0 -4748 2495 0 2495 0 0
4649 0 4649 -112 6 c-62 4 -1148 49 -2413 101 -1265 52 -2335 96 -2377 98 -42
3 -79 2 -82 -1z"/>
<path d="M50730 71245 l0 -4645 2685 0 2685 0 0 4535 c0 2494 -4 4535 -8 4535
-5 0 -1203 49 -2663 110 -1460 60 -2664 110 -2676 110 l-23 0 0 -4645z"/>
<path d="M16402 67943 l3 -2038 3800 0 3800 0 3 2038 2 2037 -3805 0 -3805 0
2 -2037z"/>
<path d="M45520 64645 l0 -1685 5295 0 5295 0 0 1685 0 1685 -5295 0 -5295 0
0 -1685z"/>
<path d="M16850 64770 l0 -900 -1705 0 -1705 0 0 -820 0 -820 5305 0 5305 0 0
1720 0 1720 -3600 0 -3600 0 0 -900z"/>
<path d="M45520 60590 l0 -2090 3795 0 3795 0 0 2090 0 2090 -3795 0 -3795 0
0 -2090z"/>
<path d="M13440 60240 l0 -1680 5285 0 5285 0 0 1680 0 1680 -5285 0 -5285 0
0 -1680z"/>
<path d="M13440 56570 l0 -1780 5285 0 5285 0 -2 1778 -3 1777 -5282 3 -5283
2 0 -1780z"/>
<path d="M45520 56530 l0 -1710 5283 2 5282 3 3 828 2 827 -1490 0 -1490 0 0
880 0 880 -3795 0 -3795 0 0 -1710z"/>
<path d="M13440 52815 l0 -1715 5283 2 5282 3 0 1710 0 1710 -5282 3 -5283 2
0 -1715z"/>
<path d="M45520 52815 l0 -1715 5283 2 5282 3 3 1713 2 1712 -5285 0 -5285 0
0 -1715z"/>
<path d="M13440 49135 l0 -1655 5283 2 5282 3 0 1650 0 1650 -5282 3 -5283 2
0 -1655z"/>
<path d="M45520 49135 l0 -1655 5285 0 5285 0 0 1655 0 1655 -5285 0 -5285 0
0 -1655z"/>
<path d="M13440 45325 l0 -1845 5283 2 5282 3 3 1843 2 1842 -5285 0 -5285 0
0 -1845z"/>
<path d="M45520 45325 l0 -1845 5283 2 5282 3 3 1843 2 1842 -5285 0 -5285 0
0 -1845z"/>
<path d="M13440 41295 l0 -1875 5285 0 5285 0 -2 1873 -3 1872 -5282 3 -5283
2 0 -1875z"/>
<path d="M45520 41295 l0 -1875 5285 0 5285 0 0 1875 0 1875 -5285 0 -5285 0
0 -1875z"/>
<path d="M13440 37380 l0 -1770 5283 2 5282 3 0 1765 0 1765 -5282 3 -5283 2
0 -1770z"/>
<path d="M45520 37380 l0 -1770 5283 2 5282 3 0 1765 0 1765 -5282 3 -5283 2
0 -1770z"/>
<path d="M22502 27808 l3 -7613 2953 -3 2952 -2 0 7615 0 7615 -2955 0 -2955
0 2 -7612z"/>
<path d="M41200 27805 l0 -7615 2953 2 2952 3 3 7613 2 7612 -2955 0 -2955 0
0 -7615z"/>
<path d="M13532 24568 l3 -4373 4345 0 4345 0 3 4373 2 4372 -4350 0 -4350 0
2 -4372z"/>
<path d="M47382 24568 l3 -4373 4345 0 4345 0 3 4373 2 4372 -4350 0 -4350 0
2 -4372z"/>
</g>
</svg>
