<?xml version="1.0" standalone="no"?>
<!DOCTYPE svg PUBLIC "-//W3C//DTD SVG 20010904//EN"
 "http://www.w3.org/TR/2001/REC-SVG-20010904/DTD/svg10.dtd">
<svg version="1.0" xmlns="http://www.w3.org/2000/svg"
 width="7016.000000pt" height="9922.000000pt" viewBox="0 0 7016.000000 9922.000000"
 preserveAspectRatio="xMidYMid meet">
   <style>
		path:hover {
		fill: #fff;
		transition: fill 0.3s ease;
		}
  </style>

<g  transform="translate(0.000000,9922.000000) scale(0.100000,-0.100000)"
fill="" stroke="none">
<path d="M18647 69403 c-4 -3 -7 -1659 -7 -3680 l0 -3673 3810 0 3810 0 -2
3678 -3 3677 -3801 3 c-2090 1 -3804 -1 -3807 -5z"/>
<path d="M43557 69313 c-4 -3 -7 -1581 -7 -3505 l0 -3498 4745 0 4745 0 0 275
0 275 1610 0 1610 0 0 3230 0 3230 -6348 0 c-3492 0 -6352 -3 -6355 -7z"/>
<path d="M43560 58440 l0 -3720 3800 0 3800 0 0 3720 0 3720 -3800 0 -3800 0
0 -3720z"/>
<path d="M15970 60125 l0 -1735 5160 0 5160 0 0 1735 0 1735 -5160 0 -5160 0
0 -1735z"/>
<path d="M15970 56440 l0 -1740 5165 0 5165 0 0 1740 0 1740 -5165 0 -5165 0
0 -1740z"/>
<path d="M15957 54513 c-4 -3 -7 -793 -7 -1755 l0 -1748 5165 0 5165 0 -2
1753 -3 1752 -5156 3 c-2836 1 -5159 -1 -5162 -5z"/>
<path d="M43560 52765 l0 -1745 5175 0 5175 0 0 1745 0 1745 -5175 0 -5175 0
0 -1745z"/>
<path d="M43560 49090 l0 -1780 5178 2 5177 3 3 1778 2 1777 -5180 0 -5180 0
0 -1780z"/>
<path d="M15952 49083 l3 -1768 5155 0 5155 0 3 1768 2 1767 -5160 0 -5160 0
2 -1767z"/>
<path d="M15955 47128 c-3 -7 -4 -794 -3 -1748 l3 -1735 5163 -3 5162 -2 0
1750 0 1750 -5160 0 c-4119 0 -5162 -3 -5165 -12z"/>
<path d="M43560 45390 l0 -1750 5180 0 5180 0 0 1750 0 1750 -5180 0 -5180 0
0 -1750z"/>
<path d="M43542 41233 l3 -2248 5183 -3 5182 -2 0 2250 0 2250 -5185 0 -5185
0 2 -2247z"/>
<path d="M15960 41151 c0 -1516 3 -2292 10 -2296 6 -4 10 23 10 74 l0 81 5155
0 5155 0 0 2215 0 2215 -5165 0 -5165 0 0 -2289z"/>
<path d="M22470 34730 l0 -4100 2950 0 2950 0 0 4100 0 4100 -2950 0 -2950 0
0 -4100z"/>
<path d="M28570 34730 l0 -4100 2040 0 2040 0 0 4100 0 4100 -2040 0 -2040 0
0 -4100z"/>
<path d="M32830 34730 l0 -4100 2055 0 2055 0 0 4100 0 4100 -2055 0 -2055 0
0 -4100z"/>
<path d="M37120 34730 l0 -4100 2050 0 2050 0 0 4100 0 4100 -2050 0 -2050 0
0 -4100z"/>
<path d="M41370 34730 l0 -4100 2960 0 2960 0 0 4100 0 4100 -2960 0 -2960 0
0 -4100z"/>
<path d="M21030 22965 l0 -5225 1790 0 1790 0 0 5225 0 5225 -1790 0 -1790 0
0 -5225z"/>
<path d="M24800 22955 l0 -5235 1785 0 1785 0 0 5235 0 5235 -1785 0 -1785 0
0 -5235z"/>
<path d="M28570 23585 l0 -4605 2040 0 2040 0 0 4605 0 4605 -2040 0 -2040 0
0 -4605z"/>
<path d="M32810 23585 l0 -4605 2083 2 2082 3 3 4603 2 4602 -2085 0 -2085 0
0 -4605z"/>
<path d="M37120 23585 l0 -4605 2045 0 2045 0 -2 4603 -3 4602 -2042 3 -2043
2 0 -4605z"/>
<path d="M41400 22960 l0 -5230 1780 0 1780 0 0 5230 0 5230 -1780 0 -1780 0
0 -5230z"/>
<path d="M45160 22955 l0 -5235 1785 0 1785 0 0 5235 0 5235 -1785 0 -1785 0
0 -5235z"/>
<path d="M48917 28173 c-4 -3 -7 -2352 -7 -5220 l0 -5213 3710 0 3710 0 -2
5218 -3 5217 -3701 3 c-2035 1 -3704 -1 -3707 -5z"/>
<path d="M13330 22950 l0 -5220 3765 0 3765 0 0 5220 0 5220 -3765 0 -3765 0
0 -5220z"/>
</g>
</svg>
