<?xml version="1.0" standalone="no"?>
<!DOCTYPE svg PUBLIC "-//W3C//DTD SVG 20010904//EN"
 "http://www.w3.org/TR/2001/REC-SVG-20010904/DTD/svg10.dtd">
<svg version="1.0" xmlns="http://www.w3.org/2000/svg"
 width="7016.000000pt" height="9922.000000pt" viewBox="0 0 7016.000000 9922.000000"
 preserveAspectRatio="xMidYMid meet">

<g transform="translate(0.000000,9922.000000) scale(0.100000,-0.100000)"
fill="#000000" stroke="none">
<path d="M11270 76301 l0 -4291 1635 0 1635 0 0 -2360 0 -2360 895 0 895 0 0
3050 0 3050 1140 0 1140 0 0 -989 0 -989 1098 5 c603 3 1835 8 2737 12 l1640
6 3 4323 c2 3453 0 4323 -10 4327 -7 2 -2852 114 -6323 249 -3471 135 -6349
248 -6397 251 l-88 7 0 -4291z"/>
<path d="M16470 67550 l0 -3680 3805 0 3805 0 0 3680 0 3680 -3805 0 -3805 0
0 -3680z"/>
<path d="M41380 67635 l0 -3505 4740 0 4740 0 0 275 0 275 1613 2 1612 3 3
3228 2 3227 -6355 0 -6355 0 0 -3505z"/>
<path d="M41380 60265 l0 -3715 3805 0 3805 0 0 3715 0 3715 -3805 0 -3805 0
0 -3715z"/>
<path d="M13800 61945 l0 -1735 5158 2 5157 3 3 1733 2 1732 -5160 0 -5160 0
0 -1735z"/>
<path d="M13792 58263 l3 -1738 5165 0 5165 0 3 1738 2 1737 -5170 0 -5170 0
2 -1737z"/>
<path d="M13780 54585 l0 -1755 5160 0 5160 0 0 1755 0 1755 -5160 0 -5160 0
0 -1755z"/>
<path d="M41382 54588 l3 -1743 5175 0 5175 0 3 1743 2 1742 -5180 0 -5180 0
2 -1742z"/>
<path d="M41380 50915 l0 -1775 5180 0 5180 0 0 1775 0 1775 -5180 0 -5180 0
0 -1775z"/>
<path d="M13780 50910 l0 -1770 5155 0 5155 0 0 1770 0 1770 -5155 0 -5155 0
0 -1770z"/>
<path d="M41390 47215 l0 -1755 5175 0 5175 0 0 1755 0 1755 -5175 0 -5175 0
0 -1755z"/>
<path d="M13780 47215 l0 -1745 5160 0 5160 0 0 1745 0 1745 -5160 0 -5160 0
0 -1745z"/>
<path d="M41370 43060 l0 -2250 5185 0 5185 0 0 2250 0 2250 -5185 0 -5185 0
0 -2250z"/>
<path d="M13790 42975 c0 -1523 3 -2295 10 -2295 6 0 10 32 10 75 l0 75 5150
0 5150 0 0 2220 0 2220 -5160 0 -5160 0 0 -2295z"/>
<path d="M20300 36555 l0 -4105 2948 2 2947 3 0 4100 0 4100 -2947 3 -2948 2
0 -4105z"/>
<path d="M26390 36555 l0 -4105 2045 0 2045 0 0 4105 0 4105 -2045 0 -2045 0
0 -4105z"/>
<path d="M30657 40653 c-4 -3 -7 -1848 -7 -4100 l0 -4093 2060 0 2060 0 -2
4098 -3 4097 -2051 3 c-1128 1 -2054 -1 -2057 -5z"/>
<path d="M34945 40648 c-3 -7 -4 -1853 -3 -4103 l3 -4090 2050 0 2050 0 0
4100 0 4100 -2048 3 c-1633 2 -2049 0 -2052 -10z"/>
<path d="M39200 36555 l0 -4105 2955 0 2955 0 0 4105 0 4105 -2955 0 -2955 0
0 -4105z"/>
<path d="M18857 30013 c-4 -3 -7 -2357 -7 -5230 l0 -5223 1790 0 1790 0 0
5230 0 5230 -1783 0 c-981 0 -1787 -3 -1790 -7z"/>
<path d="M30640 25415 l0 -4605 2080 0 2080 0 0 4605 0 4605 -2080 0 -2080 0
0 -4605z"/>
<path d="M22620 24780 l0 -5230 1790 0 1790 0 0 5230 0 5230 -1790 0 -1790 0
0 -5230z"/>
<path d="M26392 25408 l3 -4603 2040 0 2040 0 3 4603 2 4602 -2045 0 -2045 0
2 -4602z"/>
<path d="M34942 25408 l3 -4603 2043 -3 2042 -2 0 4605 0 4605 -2045 0 -2045
0 2 -4602z"/>
<path d="M39220 24785 l0 -5225 1780 0 1780 0 0 5225 0 5225 -1780 0 -1780 0
0 -5225z"/>
<path d="M42980 24780 l0 -5230 1790 0 1790 0 0 5230 0 5230 -1790 0 -1790 0
0 -5230z"/>
<path d="M46740 24780 l0 -5220 3705 0 3705 0 0 5220 0 5220 -3705 0 -3705 0
0 -5220z"/>
<path d="M11152 24773 l3 -5218 3765 0 3765 0 0 5215 0 5215 -3768 3 -3767 2
2 -5217z"/>
</g>
</svg>
