<?xml version="1.0" standalone="no"?>
<!DOCTYPE svg PUBLIC "-//W3C//DTD SVG 20010904//EN"
 "http://www.w3.org/TR/2001/REC-SVG-20010904/DTD/svg10.dtd">
<svg version="1.0" xmlns="http://www.w3.org/2000/svg"
 width="7016.000000pt" height="9935.000000pt" viewBox="0 0 7016.000000 9935.000000"
 preserveAspectRatio="xMidYMid meet">

<g transform="translate(0.000000,9935.000000) scale(0.100000,-0.100000)"
fill="#000000" stroke="none">
<path d="M11990 73980 l0 -7080 565 0 565 0 0 1690 0 1690 2820 0 2820 0 0
5264 0 5264 -112 6 c-163 9 -6510 246 -6590 246 l-68 0 0 -7080z"/>
<path d="M18957 75446 l6 -5326 -1186 0 -1187 0 0 -2045 0 -2045 5170 0 5170
0 0 7230 c0 3977 -1 7230 -3 7230 -35 0 -7752 271 -7844 275 l-133 7 7 -5326z"/>
<path d="M42320 74490 l0 -5250 4040 0 4040 0 0 5080 0 5080 -22 0 c-13 0
-1808 77 -3990 170 -2182 94 -3990 170 -4018 170 l-50 0 0 -5250z"/>
<path d="M50600 71181 l0 -8221 3353 2 3352 3 3 8092 2 8091 -82 6 c-46 3
-1512 58 -3258 121 -1746 63 -3219 117 -3272 121 l-98 6 0 -8221z"/>
<path d="M16408 69895 c-6 -30 -3 -43 8 -33 3 4 4 19 2 35 l-3 28 -7 -30z"/>
<path d="M42330 63842 l0 -5197 4543 2 c2498 2 4863 6 5255 9 l712 6 -2 2032
-3 2031 -1217 3 -1218 2 0 3155 0 3155 -4035 0 -4035 0 0 -5198z"/>
<path d="M11990 65305 l0 -1465 -2235 0 -2235 0 2 -4522 3 -4523 9788 -3 9787
-2 0 4530 0 4531 -6990 -3 -6990 -3 0 1463 0 1462 -565 0 -565 0 0 -1465z"/>
<path d="M61594 62718 c11 -6 51 -14 90 -19 39 -4 86 -10 104 -15 31 -6 34 -5
30 17 -3 24 -5 24 -123 26 -94 2 -116 0 -101 -9z"/>
<path d="M42240 52085 l0 -4475 6739 0 c4483 0 6742 3 6746 10 8 13 195 13
195 0 0 -7 984 -9 2948 -8 l2947 3 0 4470 0 4470 -9787 3 -9788 2 0 -4475z"/>
<path d="M7525 54598 c-3 -7 -4 -1581 -3 -3498 l3 -3485 9788 -3 9787 -2 0
3500 0 3500 -9785 0 c-7819 0 -9787 -3 -9790 -12z"/>
<path d="M7525 47417 c-3 -6 -4 -1396 -3 -3087 l3 -3075 9060 -3 9060 -2 702
702 703 703 0 2387 0 2388 -9760 0 c-7753 0 -9762 -3 -9765 -13z"/>
<path d="M42290 45042 l0 -2387 703 -703 702 -702 9060 2 9060 3 0 3085 0
3085 -9762 3 -9763 2 0 -2388z"/>
<path d="M7525 41097 c-3 -6 -4 -1272 -3 -2812 l3 -2800 8278 -2 8277 -3 0
2815 0 2815 -8275 0 c-6570 0 -8277 -3 -8280 -13z"/>
<path d="M45260 38295 l0 -2815 8278 3 8277 2 3 2813 2 2812 -8280 0 -8280 0
0 -2815z"/>
<path d="M29537 39592 l-1367 -1367 0 -5328 0 -5327 3203 2 3202 3 3 6693 2
6692 -1838 0 -1837 0 -1368 -1368z"/>
<path d="M34730 34265 l0 -6695 3203 2 3202 3 3 5320 2 5320 -1372 1372 -1373
1373 -1832 0 -1833 0 0 -6695z"/>
<path d="M7527 35323 c-4 -3 -7 -4958 -7 -11010 l0 -11003 2940 0 c2737 0
2940 -1 2940 -17 0 -9 3 -14 6 -11 3 3 5 181 4 395 0 213 2 929 6 1589 l7
1201 6251 7 c3438 3 6801 9 7474 12 l1222 7 0 1838 0 1839 3095 0 3095 0 0
3590 0 3590 -3285 0 -3285 0 0 1150 0 1150 -6190 0 -6190 0 0 2840 0 2840
-4038 0 c-2221 0 -4042 -3 -4045 -7z"/>
<path d="M53780 32410 l0 -2760 -6215 0 -6215 0 0 -1150 0 -1150 -3310 0
-3310 0 0 -3590 0 -3590 3120 0 3120 0 0 -1839 0 -1838 1223 -7 c672 -3 4036
-9 7475 -12 l6252 -7 0 -456 c0 -741 12 -2726 16 -2730 2 -2 4 3 4 12 0 16
203 17 2940 17 l2940 0 0 10930 0 10930 -4020 0 -4020 0 0 -2760z"/>
</g>
</svg>
