<?xml version="1.0" encoding="utf-8"?>
<!-- Generator: Adobe Illustrator 27.0.0, SVG Export Plug-In . SVG Version: 6.00 Build 0)  -->
<svg version="1.1" id="Layer_1" xmlns="http://www.w3.org/2000/svg" xmlns:xlink="http://www.w3.org/1999/xlink" x="0px" y="0px"
	 viewBox="0 0 897.12 478.96" style="enable-background:new 0 0 897.12 478.96;" xml:space="preserve">
<style type="text/css">
	.st0{fill:#FFFFFF;}
	.st1{fill:#FFFFFF;}
	.st2{fill:#FFFFFF;}
	.st3{fill:#FFFFFF;}
</style>
<path class="st1" d="M403.6,216.45v86.19h-15.07v-86.19H403.6z"/>
<path class="st1" d="M469.48,216.45c5.11,0,9.47,0.58,13.09,1.72c3.61,1.15,6.59,2.77,8.93,4.85c2.34,2.09,4.06,4.58,5.18,7.47
	c1.1,2.9,1.66,6.09,1.66,9.58c0,5.03-1.05,9.07-3.13,12.13c-2.08,3.06-5.17,5.41-9.25,7.02c4.08,1.7,7.23,4.15,9.45,7.34
	c2.21,3.19,3.32,7.3,3.32,12.32c0,3.49-0.55,6.68-1.66,9.58c-1.11,2.9-2.83,5.39-5.17,7.47c-2.34,2.09-5.32,3.73-8.94,4.92
	c-3.62,1.19-7.98,1.79-13.09,1.79h-38.3c-4.77,0-7.15-2.34-7.15-7.02v-72.14c0-4.68,2.38-7.02,7.15-7.02H469.48z M439.22,252.84
	h30.64c8.85,0,13.28-3.45,13.28-10.34c0-3.41-1.04-6.13-3.13-8.17c-2.09-2.04-5.43-3.07-10.03-3.07h-29.11
	c-1.11,0-1.66,0.51-1.66,1.53V252.84z M439.22,286.29c0,0.94,0.55,1.41,1.66,1.41h29.37c4.6,0,7.96-0.98,10.09-2.94
	c2.13-1.96,3.2-4.73,3.2-8.3c0-7.41-4.43-11.11-13.28-11.11h-31.03V286.29z"/>
<path class="st1" d="M574.94,216.45v15.07h-25.15v71.12h-15.2v-71.12h-25.15v-15.07H574.94z"/>
<path class="st1" d="M604.18,216.45v36.52h8.3c3.66,0,6.66-0.11,9-0.32c2.34-0.21,4.28-0.7,5.81-1.47c1.53-0.77,2.83-1.85,3.89-3.25
	c1.06-1.41,2.19-3.3,3.39-5.68l13.15-25.79h16.22l-13.53,26.81c-1.96,3.83-4.04,7.02-6.26,9.58c-2.22,2.56-5.11,4.6-8.68,6.13
	c2.04,0.51,3.83,1.22,5.36,2.11c1.53,0.89,2.96,2,4.28,3.32c1.32,1.32,2.57,2.89,3.77,4.72c1.19,1.83,2.43,3.98,3.7,6.45
	l13.92,27.07h-16.86l-13.15-25.54c-1.19-2.3-2.34-4.13-3.45-5.49c-1.11-1.36-2.51-2.43-4.21-3.19c-1.7-0.77-3.83-1.25-6.39-1.47
	c-2.55-0.21-5.87-0.32-9.96-0.32h-8.3v36.01h-15.07v-86.19H604.18z"/>
<path class="st1" d="M690.62,302.64h-16.6l30.26-76.61c1.61-4.08,3.89-6.96,6.83-8.62c2.94-1.66,6.7-2.49,11.3-2.49
	c4.51,0,8.24,0.83,11.17,2.49c2.94,1.66,5.17,4.53,6.7,8.62l29.11,76.61h-16.73l-26.17-69.33c-0.77-1.96-2.17-2.94-4.21-2.94
	c-2.04,0-3.49,0.98-4.34,2.94L690.62,302.64z"/>
<path class="st1" d="M828.64,216.45c4.85,0,9.02,0.7,12.51,2.11c3.49,1.41,6.36,3.28,8.62,5.62c2.25,2.34,3.92,5.09,4.98,8.23
	c1.06,3.15,1.59,6.43,1.59,9.83c0,2.73-0.34,5.43-1.02,8.11c-0.68,2.68-1.75,5.19-3.19,7.53c-1.45,2.34-3.32,4.41-5.62,6.19
	c-2.3,1.79-5.11,3.15-8.43,4.08l20.04,34.48h-16.73l-19.66-33.32h-22.47c-1.45,0-2.17,0.72-2.17,2.17v31.15h-15.07v-34.09
	c0-4.85,1.06-8.34,3.19-10.47c2.13-2.13,5.58-3.19,10.34-3.19h33.58c2.13,0,3.96-0.34,5.49-1.02c1.53-0.68,2.77-1.58,3.7-2.68
	s1.64-2.38,2.11-3.83c0.47-1.45,0.7-2.94,0.7-4.47c0-3.06-0.96-5.72-2.87-7.98c-1.91-2.25-4.96-3.38-9.13-3.38h-47.24v-15.07H828.64
	z"/>
<path class="st1" d="M402.06,312.75c6.34,0,11.16,1.77,14.46,5.3c3.3,3.53,4.95,8.96,4.95,16.28c0,7.28-1.65,12.68-4.95,16.22
	c-3.3,3.53-8.12,5.3-14.46,5.3h-15.19c-2.38,0-3.58-1.17-3.58-3.51v-36.07c0-2.34,1.19-3.51,3.58-3.51H402.06z M390.83,347.54
	c0,0.51,0.28,0.77,0.83,0.77h10.41c4.17,0,7.19-1.11,9.06-3.32c1.87-2.21,2.81-5.79,2.81-10.73c0-4.94-0.93-8.5-2.78-10.69
	c-1.85-2.19-4.88-3.29-9.1-3.29h-10.41c-0.55,0-0.83,0.25-0.83,0.77V347.54z"/>
<path class="st1" d="M451.92,322.13c4,0,6.9,0.9,8.68,2.71c1.79,1.81,2.68,4.35,2.68,7.63c0,3.11-0.87,5.5-2.62,7.18
	c-1.75,1.68-4.68,2.52-8.81,2.52h-16.02v2.43c0,1.36,0.39,2.48,1.18,3.35c0.79,0.87,2.12,1.31,3.99,1.31h20.62v6.58h-20.62
	c-2.13,0-3.93-0.28-5.4-0.83c-1.47-0.55-2.68-1.33-3.64-2.33c-0.96-1-1.65-2.17-2.08-3.51c-0.43-1.34-0.64-2.82-0.64-4.44v-11.49
	c0-1.57,0.21-3.04,0.64-4.41c0.43-1.36,1.12-2.54,2.08-3.54c0.96-1,2.17-1.78,3.64-2.33c1.47-0.55,3.27-0.83,5.4-0.83H451.92z
	 M435.83,336.88h15.83c1.83,0,3.12-0.36,3.86-1.08c0.74-0.72,1.12-1.7,1.12-2.94c0-1.28-0.38-2.3-1.15-3.06
	c-0.77-0.77-1.98-1.15-3.64-1.15h-10.85c-1.87,0-3.2,0.45-3.99,1.34c-0.79,0.89-1.18,2-1.18,3.32V336.88z"/>
<path class="st1" d="M473.95,322.13l11.24,27.07c0.26,0.68,0.81,1.02,1.66,1.02c0.89,0,1.49-0.34,1.79-1.02l11.68-27.07h7.27
	l-13.02,30.07c-0.72,1.62-1.71,2.76-2.96,3.42c-1.26,0.66-2.84,0.99-4.76,0.99c-1.95,0-3.56-0.34-4.82-1.02
	c-1.26-0.68-2.21-1.81-2.84-3.39l-12.39-30.07H473.95z"/>
<path class="st1" d="M533.7,322.13c4,0,6.89,0.9,8.68,2.71c1.79,1.81,2.68,4.35,2.68,7.63c0,3.11-0.87,5.5-2.62,7.18
	c-1.75,1.68-4.68,2.52-8.81,2.52h-16.02v2.43c0,1.36,0.39,2.48,1.18,3.35s2.12,1.31,3.99,1.31h20.62v6.58h-20.62
	c-2.13,0-3.93-0.28-5.4-0.83c-1.47-0.55-2.68-1.33-3.64-2.33c-0.95-1-1.65-2.17-2.07-3.51c-0.42-1.34-0.64-2.82-0.64-4.44v-11.49
	c0-1.57,0.21-3.04,0.64-4.41c0.42-1.36,1.12-2.54,2.07-3.54c0.96-1,2.17-1.78,3.64-2.33c1.47-0.55,3.27-0.83,5.4-0.83H533.7z
	 M517.61,336.88h15.83c1.83,0,3.12-0.36,3.86-1.08c0.74-0.72,1.12-1.7,1.12-2.94c0-1.28-0.38-2.3-1.15-3.06
	c-0.77-0.77-1.98-1.15-3.64-1.15h-10.85c-1.87,0-3.2,0.45-3.99,1.34c-0.79,0.89-1.18,2-1.18,3.32V336.88z"/>
<path class="st1" d="M560.13,307.51v48.33h-6.77v-48.33H560.13z"/>
<path class="st1" d="M589.94,322.13c4.47,0,8.02,1.39,10.66,4.18c2.64,2.79,3.96,7.01,3.96,12.67c0,5.7-1.32,9.94-3.96,12.7
	c-2.64,2.77-6.19,4.15-10.66,4.15h-7.09c-4.51,0-8.07-1.38-10.69-4.15c-2.62-2.77-3.93-7-3.93-12.7c0-5.7,1.31-9.94,3.93-12.7
	c2.62-2.77,6.18-4.15,10.69-4.15H589.94z M583.5,328.64c-2.94,0-5.08,0.81-6.42,2.42c-1.34,1.62-2.01,4.26-2.01,7.92
	c0,3.66,0.67,6.29,2.01,7.88c1.34,1.6,3.48,2.4,6.42,2.4h5.81c2.94,0,5.07-0.8,6.41-2.4c1.34-1.59,2.01-4.22,2.01-7.88
	c0-3.66-0.67-6.3-2.01-7.92c-1.34-1.61-3.48-2.42-6.41-2.42H583.5z"/>
<path class="st1" d="M634.25,322.13c4.47,0,8.01,1.39,10.63,4.18c2.62,2.79,3.93,7.01,3.93,12.67c0,5.7-1.31,9.94-3.93,12.7
	c-2.62,2.77-6.16,4.15-10.63,4.15h-14.94v13.53h-6.77v-32.81c0-4.89,1.04-8.52,3.13-10.88c2.09-2.36,5.17-3.54,9.26-3.54H634.25z
	 M619.31,349.26h14.23c2.94,0,5.08-0.8,6.42-2.4c1.34-1.59,2.01-4.22,2.01-7.88c0-3.66-0.67-6.3-2.01-7.92
	c-1.34-1.61-3.48-2.42-6.42-2.42h-6.64c-2.77,0-4.73,0.64-5.87,1.92c-1.15,1.28-1.72,3.38-1.72,6.32V349.26z"/>
<path class="st1" d="M696.3,322.13c5.75,0,10.02,1.29,12.83,3.86c2.81,2.58,4.21,6.2,4.21,10.88v18.96h-6.83v-18.96
	c0-2.68-0.8-4.72-2.4-6.13c-1.59-1.41-4.18-2.11-7.76-2.11h-7.92v27.2h-6.83v-27.2h-17.11c-0.56,0-0.83,0.32-0.83,0.96v26.24h-6.77
	v-28.47c0-2,0.36-3.37,1.08-4.12c0.72-0.74,1.94-1.12,3.64-1.12H696.3z"/>
<path class="st1" d="M744.76,322.13c4,0,6.89,0.9,8.68,2.71c1.79,1.81,2.68,4.35,2.68,7.63c0,3.11-0.87,5.5-2.62,7.18
	s-4.68,2.52-8.81,2.52h-16.02v2.43c0,1.36,0.39,2.48,1.18,3.35c0.79,0.87,2.12,1.31,3.99,1.31h20.62v6.58h-20.62
	c-2.13,0-3.93-0.28-5.4-0.83s-2.68-1.33-3.64-2.33c-0.95-1-1.65-2.17-2.07-3.51s-0.64-2.82-0.64-4.44v-11.49
	c0-1.57,0.21-3.04,0.64-4.41c0.42-1.36,1.12-2.54,2.07-3.54c0.96-1,2.17-1.78,3.64-2.33c1.47-0.55,3.27-0.83,5.4-0.83H744.76z
	 M728.67,336.88h15.83c1.83,0,3.12-0.36,3.86-1.08c0.74-0.72,1.12-1.7,1.12-2.94c0-1.28-0.38-2.3-1.15-3.06
	c-0.77-0.77-1.98-1.15-3.64-1.15h-10.85c-1.87,0-3.2,0.45-3.99,1.34c-0.79,0.89-1.18,2-1.18,3.32V336.88z"/>
<path class="st1" d="M783.06,322.13c5.74,0,10.01,1.29,12.8,3.86c2.79,2.58,4.18,6.2,4.18,10.88v18.96h-6.83v-18.96
	c0-2.68-0.8-4.72-2.39-6.13c-1.59-1.41-4.18-2.11-7.76-2.11h-11.04c-0.56,0-0.83,0.32-0.83,0.96v26.24h-6.77v-28.47
	c0-2,0.36-3.37,1.08-4.12c0.72-0.74,1.94-1.12,3.64-1.12H783.06z"/>
<path class="st1" d="M810.76,322.13v-7.98h6.83v7.98h9.32v6.51h-9.32v15.96c0,1.91,0.35,3.23,1.05,3.96
	c0.7,0.72,1.86,1.08,3.48,1.08h4.66v6.19h-6.06c-1.75,0-3.25-0.19-4.5-0.58c-1.26-0.38-2.29-1.02-3.1-1.91
	c-0.81-0.89-1.41-2.09-1.79-3.58c-0.38-1.49-0.58-3.34-0.58-5.56v-15.58h-4.59v-6.51H810.76z"/>
<path class="st1" d="M861.58,322.13v6.51h-18.64c-1.57,0-2.7,0.32-3.38,0.96c-0.68,0.64-1.02,1.59-1.02,2.87
	c0,1.19,0.33,2.1,0.99,2.71c0.66,0.62,1.93,0.93,3.8,0.93h7.92c2.34,0,4.26,0.25,5.77,0.77c1.51,0.51,2.7,1.19,3.58,2.04
	c0.87,0.85,1.48,1.85,1.82,3c0.34,1.15,0.51,2.38,0.51,3.7c0,1.49-0.2,2.86-0.61,4.12c-0.41,1.25-1.05,2.33-1.95,3.23
	c-0.89,0.89-2.04,1.59-3.45,2.11c-1.41,0.51-3.09,0.77-5.04,0.77h-19.6v-6.58h19.6c1.58,0,2.7-0.29,3.38-0.86
	c0.68-0.58,1.02-1.52,1.02-2.84c0-1.36-0.37-2.33-1.12-2.9c-0.75-0.58-1.97-0.86-3.67-0.86h-7.98c-2.34,0-4.26-0.27-5.75-0.8
	c-1.49-0.53-2.67-1.25-3.54-2.17c-0.87-0.92-1.48-1.97-1.82-3.16c-0.34-1.19-0.51-2.43-0.51-3.7c0-3.02,0.85-5.41,2.55-7.18
	c1.7-1.77,4.51-2.65,8.43-2.65H861.58z"/>
<path class="st0" d="M270.93,157.3c48.32,28.9,86.77,92.72,69.4,167.3c-16.08,69.04-79.55,122.46-158.07,118.99
	c-73.04-3.22-132.86-57.54-145.56-127.76c-13.13-72.56,27.58-132.13,71.39-157.98c0,3.4,0.21,6.72-0.12,9.97
	c-0.1,1.05-1.46,2.16-2.48,2.91c-9.82,7.22-18.76,15.37-26.55,24.75c-16.82,20.28-28.26,43.18-32.71,69.24
	c-5.51,32.33-0.63,63.02,15.26,91.92c20.57,37.42,51.36,61.74,92.53,72.85c15.11,4.08,30.55,5.04,46.16,3.9
	c23.66-1.72,45.84-8.25,65.81-21.16c33.86-21.9,56.44-52.04,65.2-91.79c13.21-59.95-11.96-117.16-57.05-149.31
	c-2.45-1.75-3.62-3.61-3.28-6.63C271.14,162.22,270.93,159.87,270.93,157.3z"/>
<path class="st0" d="M134.33,145.51c2.95,0,5.66,0,8.59,0c0,67.2,0,134.27,0,201.46c31.13,0,62.02,0,93.16,0
	c0-67.1,0-134.16,0-201.4c3.12,0,6.01,0,9.12,0c0.03,0.68,0.09,1.38,0.09,2.09c0,68.31,0,136.62,0,204.93c0,0.6-0.03,1.2-0.02,1.8
	c0.03,1.44-0.74,2.05-2.11,2.04c-0.67,0-1.33,0.01-2,0.01c-34.86,0-69.71,0-104.57,0c-0.72,0-1.43,0-2.27,0
	C134.33,286.04,134.33,215.84,134.33,145.51z"/>
<path class="st1" d="M159.56,90.76c2.8,0,5.51,0,8.44,0c0.04,0.72,0.1,1.43,0.1,2.13c0,75.5,0,151-0.01,226.51
	c0,2.8,0.28,3.14,3.05,3.15c12.19,0.03,24.39,0.05,36.58,0.04c2.98,0,3.72-0.85,3.72-4.09c0-35.45-0.01-70.9-0.01-106.36
	c0-39.58,0-79.17,0-118.75c0-3,0-3,2.91-3.1c5.54-0.2,5.75-0.04,5.75,5.56c0.01,77.3,0.01,154.6,0,231.9c0,3.4-0.14,3.55-3.47,3.55
	c-17.99,0.01-35.99,0-53.98,0c-0.99,0-1.97,0-3.09,0C159.56,250.98,159.56,170.93,159.56,90.76z"/>
<path class="st1" d="M261.35,372.58c0-57.44,0-114.72,0-172.17c2.93,0,5.69,0,8.68,0c0.05,0.79,0.15,1.63,0.15,2.46
	c0.01,58.71,0,117.41,0.05,176.12c0,1.95-0.41,2.6-2.52,2.6c-51.98-0.06-103.95-0.05-155.93-0.05c-0.72,0-1.43-0.06-2.22-0.1
	c0-60.44,0-120.71,0-181.08c2.68,0,5.25,0,8.16,0c0,1.61,0,3.12,0,4.63c0,54.24,0.01,108.48,0.01,162.72c0,4.96,0,4.98,4.98,4.98
	c45.45,0,90.89,0,136.34,0C259.76,372.68,260.47,372.62,261.35,372.58z"/>
<path class="st1" d="M185.3,35.21c2.88,0,5.46,0,8.36,0c0.1,1.53,0.31,3.08,0.31,4.64c0.02,64.04,0.01,128.08,0.02,192.12
	c0,22.06,0.04,44.11,0.05,66.17c0,2.07-0.91,3.08-2.95,3.19c-1.39,0.08-2.8,0-4.19,0.06c-1.24,0.06-1.67-0.51-1.59-1.68
	c0.04-0.6,0-1.2,0-1.8c0-86.5,0-172.99,0-259.49C185.3,37.39,185.3,36.35,185.3,35.21z"/>
</svg>
