<?xml version="1.0" encoding="utf-8"?>
<!-- Generator: Adobe Illustrator 27.0.0, SVG Export Plug-In . SVG Version: 6.00 Build 0)  -->
<svg version="1.1" id="Layer_1" xmlns="http://www.w3.org/2000/svg" xmlns:xlink="http://www.w3.org/1999/xlink" x="0px" y="0px"
	 viewBox="0 0 575.28 630.11" style="enable-background:new 0 0 575.28 630.11;" xml:space="preserve">
<style type="text/css">
	.st0{fill:#575757;}
	.st1{fill:#C60000;}
	.st2{fill:#06204F;}
	.st3{fill:#FFFFFF;}
	.st4{fill:#231F20;}
	.st5{fill:url(#SVGID_1_);}
	.st6{fill-rule:evenodd;clip-rule:evenodd;fill:url(#SVGID_00000031176095725632885320000001061789814831027123_);}
	.st7{fill-rule:evenodd;clip-rule:evenodd;fill:url(#SVGID_00000103955966280123402440000009792385586985620624_);}
	.st8{fill-rule:evenodd;clip-rule:evenodd;fill:#D02E2C;}
	.st9{fill-rule:evenodd;clip-rule:evenodd;fill:url(#SVGID_00000101817688181277159980000015726585895530832780_);}
</style>
<g>
	<g>
		<path class="st1" d="M353.49,146.66c40.69,24.34,73.07,78.08,58.44,140.88c-13.54,58.14-66.99,103.12-133.11,100.2
			c-61.51-2.71-111.88-48.45-122.58-107.59c-11.06-61.1,23.22-111.26,60.12-133.03c0,2.87,0.17,5.66-0.1,8.4
			c-0.09,0.89-1.23,1.82-2.09,2.45c-8.27,6.08-15.8,12.94-22.35,20.84c-14.17,17.07-23.8,36.36-27.54,58.31
			c-4.64,27.23-0.53,53.07,12.85,77.41c17.33,31.51,43.25,51.99,77.92,61.35c12.73,3.44,25.73,4.24,38.87,3.29
			c19.93-1.45,38.6-6.95,55.42-17.82c28.51-18.44,47.53-43.82,54.91-77.3c11.13-50.48-10.07-98.66-48.04-125.73
			c-2.06-1.47-3.04-3.04-2.76-5.58C353.66,150.81,353.49,148.83,353.49,146.66z"/>
		<path class="st1" d="M238.46,136.74c2.48,0,4.76,0,7.23,0c0,56.59,0,113.07,0,169.65c26.21,0,52.23,0,78.45,0
			c0-56.5,0-112.98,0-169.6c2.63,0,5.06,0,7.68,0c0.03,0.57,0.07,1.16,0.07,1.76c0,57.53,0,115.05,0,172.58
			c0,0.51-0.03,1.01-0.02,1.52c0.02,1.21-0.63,1.72-1.78,1.72c-0.56,0-1.12,0.01-1.68,0.01c-29.35,0-58.7,0-88.06,0
			c-0.6,0-1.21,0-1.91,0C238.46,255.08,238.46,195.96,238.46,136.74z"/>
		<path class="st0" d="M259.7,90.63c2.36,0,4.64,0,7.1,0c0.03,0.61,0.08,1.2,0.08,1.8c0,63.58,0,127.16-0.01,190.74
			c0,2.36,0.23,2.64,2.57,2.65c10.27,0.03,20.54,0.04,30.81,0.03c2.51,0,3.14-0.71,3.14-3.45c0-29.85-0.01-59.71-0.01-89.56
			c0-33.33,0-66.67,0-100c0-2.53,0-2.53,2.45-2.61c4.67-0.17,4.84-0.03,4.84,4.68c0.01,65.1,0.01,130.19,0,195.29
			c0,2.86-0.12,2.99-2.92,2.99c-15.15,0.01-30.3,0-45.46,0c-0.83,0-1.66,0-2.6,0C259.7,225.55,259.7,158.14,259.7,90.63z"/>
		<path class="st0" d="M345.42,327.95c0-48.37,0-96.61,0-144.98c2.47,0,4.79,0,7.31,0c0.04,0.67,0.13,1.37,0.13,2.07
			c0.01,49.44,0,98.87,0.04,148.31c0,1.64-0.34,2.19-2.12,2.19c-43.77-0.05-87.54-0.04-131.31-0.05c-0.6,0-1.2-0.05-1.87-0.08
			c0-50.9,0-101.65,0-152.49c2.26,0,4.42,0,6.87,0c0,1.36,0,2.63,0,3.9c0,45.68,0.01,91.35,0.01,137.03c0,4.18,0,4.19,4.19,4.19
			c38.27,0,76.54,0,114.81,0C344.07,328.03,344.67,327.98,345.42,327.95z"/>
		<path class="st0" d="M281.38,43.85c2.43,0,4.6,0,7.04,0c0.09,1.28,0.26,2.6,0.26,3.91c0.01,53.93,0.01,107.86,0.01,161.78
			c0,18.57,0.03,37.15,0.04,55.72c0,1.74-0.76,2.59-2.49,2.69c-1.17,0.06-2.36,0-3.53,0.05c-1.05,0.05-1.41-0.43-1.34-1.41
			c0.04-0.5,0-1.01,0-1.51c0-72.84,0-145.68,0-218.52C281.38,45.69,281.38,44.81,281.38,43.85z"/>
	</g>
	<g>
		<path class="st0" d="M73.16,419.57v83.5h-14.6v-83.5H73.16z"/>
		<path class="st0" d="M136.99,419.57c4.95,0,9.17,0.56,12.68,1.67c3.5,1.11,6.39,2.68,8.66,4.7c2.27,2.02,3.94,4.43,5.01,7.24
			s1.61,5.9,1.61,9.28c0,4.87-1.01,8.79-3.03,11.75c-2.02,2.97-5.01,5.24-8.97,6.8c3.96,1.65,7.01,4.02,9.15,7.11
			c2.14,3.09,3.22,7.07,3.22,11.94c0,3.38-0.54,6.47-1.61,9.28c-1.07,2.8-2.74,5.22-5.01,7.24c-2.27,2.02-5.15,3.61-8.66,4.76
			c-3.51,1.16-7.73,1.73-12.68,1.73h-37.11c-4.62,0-6.93-2.27-6.93-6.8v-69.9c0-4.54,2.31-6.8,6.93-6.8H136.99z M107.67,454.83
			h29.69c8.58,0,12.87-3.34,12.87-10.02c0-3.3-1.01-5.94-3.03-7.92c-2.02-1.98-5.26-2.97-9.71-2.97h-28.21
			c-1.07,0-1.61,0.5-1.61,1.49V454.83z M107.67,487.24c0,0.91,0.54,1.36,1.61,1.36h28.45c4.45,0,7.71-0.95,9.77-2.85
			c2.06-1.89,3.09-4.58,3.09-8.04c0-7.17-4.29-10.76-12.86-10.76h-30.06V487.24z"/>
		<path class="st0" d="M239.17,419.57v14.6H214.8v68.91h-14.72v-68.91h-24.37v-14.6H239.17z"/>
		<path class="st0" d="M267.5,419.57v35.38h8.04c3.55,0,6.45-0.1,8.72-0.31c2.27-0.21,4.14-0.68,5.63-1.42
			c1.48-0.74,2.74-1.79,3.77-3.16c1.03-1.36,2.12-3.19,3.28-5.5l12.74-24.99h15.71l-13.11,25.98c-1.9,3.71-3.92,6.8-6.06,9.28
			c-2.15,2.47-4.95,4.45-8.41,5.94c1.98,0.5,3.71,1.17,5.2,2.04c1.48,0.87,2.86,1.94,4.14,3.22c1.28,1.28,2.49,2.8,3.65,4.58
			c1.15,1.78,2.35,3.86,3.59,6.25l13.48,26.23h-16.33l-12.74-24.74c-1.16-2.23-2.27-4-3.34-5.32c-1.07-1.32-2.43-2.35-4.08-3.09
			c-1.65-0.74-3.71-1.22-6.19-1.42c-2.48-0.21-5.69-0.31-9.65-0.31h-8.04v34.89h-14.6v-83.5H267.5z"/>
		<path class="st0" d="M351.25,503.08h-16.08l29.32-74.23c1.57-3.96,3.77-6.74,6.62-8.35s6.5-2.41,10.95-2.41
			c4.37,0,7.98,0.81,10.82,2.41c2.84,1.61,5.01,4.39,6.49,8.35l28.21,74.23h-16.21l-25.36-67.17c-0.74-1.9-2.1-2.85-4.08-2.85
			c-1.98,0-3.38,0.95-4.21,2.85L351.25,503.08z"/>
		<path class="st0" d="M484.98,419.57c4.7,0,8.74,0.68,12.12,2.04c3.38,1.36,6.17,3.18,8.35,5.44c2.19,2.27,3.79,4.93,4.83,7.98
			c1.03,3.05,1.55,6.23,1.55,9.52c0,2.64-0.33,5.26-0.99,7.86c-0.66,2.6-1.69,5.03-3.09,7.3c-1.41,2.27-3.22,4.27-5.45,6
			c-2.22,1.73-4.95,3.05-8.16,3.96l19.42,33.4h-16.21l-19.05-32.29h-21.77c-1.4,0-2.1,0.7-2.1,2.1v30.18h-14.6v-33.03
			c0-4.7,1.03-8.08,3.09-10.14c2.06-2.06,5.4-3.09,10.02-3.09h32.54c2.06,0,3.83-0.33,5.32-0.99c1.48-0.66,2.68-1.53,3.58-2.6
			c0.91-1.07,1.59-2.31,2.04-3.71c0.45-1.4,0.68-2.85,0.68-4.33c0-2.97-0.93-5.55-2.79-7.73c-1.85-2.18-4.8-3.28-8.84-3.28H439.7
			v-14.6H484.98z"/>
		<path class="st0" d="M71.67,512.87c6.14,0,10.81,1.71,14.01,5.13c3.19,3.42,4.79,8.68,4.79,15.77c0,7.05-1.6,12.29-4.79,15.71
			c-3.2,3.42-7.87,5.13-14.01,5.13H56.95c-2.31,0-3.46-1.13-3.46-3.4v-34.95c0-2.26,1.15-3.4,3.46-3.4H71.67z M60.79,546.58
			c0,0.5,0.27,0.74,0.8,0.74h10.08c4.04,0,6.97-1.07,8.78-3.22s2.72-5.61,2.72-10.39c0-4.78-0.9-8.23-2.69-10.36
			c-1.79-2.12-4.73-3.19-8.81-3.19H61.59c-0.54,0-0.8,0.25-0.8,0.74V546.58z"/>
		<path class="st0" d="M119.98,521.96c3.88,0,6.68,0.88,8.41,2.63c1.73,1.75,2.6,4.22,2.6,7.39c0,3.01-0.85,5.33-2.54,6.96
			c-1.69,1.63-4.54,2.44-8.54,2.44H104.4v2.35c0,1.32,0.38,2.4,1.14,3.25c0.76,0.85,2.05,1.27,3.87,1.27h19.98v6.37h-19.98
			c-2.06,0-3.8-0.27-5.23-0.8c-1.42-0.54-2.6-1.29-3.53-2.26c-0.93-0.97-1.6-2.1-2.01-3.4c-0.41-1.3-0.62-2.73-0.62-4.3v-11.13
			c0-1.53,0.21-2.95,0.62-4.27c0.41-1.32,1.08-2.46,2.01-3.43c0.93-0.97,2.1-1.72,3.53-2.26c1.42-0.54,3.17-0.8,5.23-0.8H119.98z
			 M104.4,536.25h15.34c1.77,0,3.02-0.35,3.74-1.05c0.72-0.7,1.08-1.65,1.08-2.84c0-1.24-0.37-2.23-1.11-2.97
			c-0.74-0.74-1.92-1.12-3.53-1.12h-10.51c-1.82,0-3.1,0.43-3.87,1.3c-0.76,0.87-1.14,1.94-1.14,3.22V536.25z"/>
		<path class="st0" d="M141.32,521.96l10.89,26.23c0.25,0.66,0.78,0.99,1.61,0.99c0.87,0,1.44-0.33,1.73-0.99l11.32-26.23h7.05
			L161.3,551.1c-0.7,1.57-1.66,2.67-2.88,3.31c-1.22,0.64-2.75,0.96-4.61,0.96c-1.9,0-3.45-0.33-4.67-0.99
			c-1.22-0.66-2.13-1.75-2.75-3.28l-12-29.13H141.32z"/>
		<path class="st0" d="M199.22,521.96c3.88,0,6.68,0.88,8.41,2.63c1.73,1.75,2.6,4.22,2.6,7.39c0,3.01-0.85,5.33-2.54,6.96
			c-1.69,1.63-4.54,2.44-8.54,2.44h-15.53v2.35c0,1.32,0.38,2.4,1.14,3.25c0.76,0.85,2.05,1.27,3.87,1.27h19.98v6.37h-19.98
			c-2.06,0-3.8-0.27-5.23-0.8c-1.42-0.54-2.6-1.29-3.53-2.26c-0.93-0.97-1.6-2.1-2.01-3.4c-0.41-1.3-0.62-2.73-0.62-4.3v-11.13
			c0-1.53,0.21-2.95,0.62-4.27c0.41-1.32,1.08-2.46,2.01-3.43c0.93-0.97,2.1-1.72,3.53-2.26c1.42-0.54,3.17-0.8,5.23-0.8H199.22z
			 M183.63,536.25h15.34c1.77,0,3.02-0.35,3.74-1.05c0.72-0.7,1.08-1.65,1.08-2.84c0-1.24-0.37-2.23-1.11-2.97
			c-0.74-0.74-1.92-1.12-3.53-1.12h-10.51c-1.82,0-3.1,0.43-3.87,1.3c-0.76,0.87-1.14,1.94-1.14,3.22V536.25z"/>
		<path class="st0" d="M224.82,507.8v46.82h-6.56V507.8H224.82z"/>
		<path class="st0" d="M253.71,521.96c4.33,0,7.77,1.35,10.33,4.05c2.56,2.7,3.84,6.79,3.84,12.28c0,5.53-1.28,9.63-3.84,12.31
			c-2.56,2.68-6,4.02-10.33,4.02h-6.86c-4.37,0-7.83-1.34-10.36-4.02c-2.54-2.68-3.8-6.78-3.8-12.31c0-5.53,1.27-9.63,3.8-12.31
			c2.54-2.68,5.99-4.02,10.36-4.02H253.71z M247.46,528.27c-2.85,0-4.92,0.79-6.22,2.35s-1.95,4.12-1.95,7.67
			c0,3.55,0.65,6.09,1.95,7.64c1.3,1.55,3.37,2.32,6.22,2.32h5.63c2.85,0,4.92-0.77,6.22-2.32c1.3-1.55,1.95-4.09,1.95-7.64
			c0-3.55-0.65-6.1-1.95-7.67c-1.3-1.57-3.37-2.35-6.22-2.35H247.46z"/>
		<path class="st0" d="M296.64,521.96c4.33,0,7.76,1.35,10.3,4.05c2.54,2.7,3.8,6.79,3.8,12.28c0,5.53-1.27,9.63-3.8,12.31
			c-2.54,2.68-5.97,4.02-10.3,4.02h-14.47v13.11h-6.56v-31.79c0-4.74,1.01-8.26,3.03-10.55s5.01-3.43,8.97-3.43H296.64z
			 M282.16,548.25h13.79c2.85,0,4.92-0.77,6.22-2.32c1.3-1.55,1.95-4.09,1.95-7.64c0-3.55-0.65-6.1-1.95-7.67
			c-1.3-1.57-3.37-2.35-6.22-2.35h-6.43c-2.68,0-4.58,0.62-5.69,1.86c-1.11,1.24-1.67,3.28-1.67,6.12V548.25z"/>
		<path class="st0" d="M356.76,521.96c5.57,0,9.71,1.25,12.43,3.74c2.72,2.5,4.08,6.01,4.08,10.55v18.37h-6.62v-18.37
			c0-2.6-0.77-4.58-2.32-5.94c-1.55-1.36-4.05-2.04-7.52-2.04h-7.67v26.35h-6.62v-26.35h-16.58c-0.54,0-0.8,0.31-0.8,0.93v25.42
			h-6.56v-27.59c0-1.94,0.35-3.27,1.05-3.99c0.7-0.72,1.88-1.08,3.53-1.08H356.76z"/>
		<path class="st0" d="M403.71,521.96c3.88,0,6.68,0.88,8.41,2.63c1.73,1.75,2.6,4.22,2.6,7.39c0,3.01-0.85,5.33-2.54,6.96
			c-1.69,1.63-4.54,2.44-8.54,2.44h-15.53v2.35c0,1.32,0.38,2.4,1.14,3.25c0.76,0.85,2.05,1.27,3.87,1.27h19.98v6.37h-19.98
			c-2.06,0-3.8-0.27-5.23-0.8c-1.42-0.54-2.6-1.29-3.53-2.26c-0.93-0.97-1.6-2.1-2.01-3.4c-0.41-1.3-0.62-2.73-0.62-4.3v-11.13
			c0-1.53,0.21-2.95,0.62-4.27c0.41-1.32,1.08-2.46,2.01-3.43c0.93-0.97,2.1-1.72,3.53-2.26c1.42-0.54,3.17-0.8,5.23-0.8H403.71z
			 M388.12,536.25h15.34c1.77,0,3.02-0.35,3.74-1.05c0.72-0.7,1.08-1.65,1.08-2.84c0-1.24-0.37-2.23-1.11-2.97
			c-0.74-0.74-1.92-1.12-3.53-1.12h-10.51c-1.82,0-3.1,0.43-3.87,1.3c-0.76,0.87-1.14,1.94-1.14,3.22V536.25z"/>
		<path class="st0" d="M440.82,521.96c5.57,0,9.7,1.25,12.4,3.74c2.7,2.5,4.05,6.01,4.05,10.55v18.37h-6.62v-18.37
			c0-2.6-0.77-4.58-2.32-5.94c-1.55-1.36-4.05-2.04-7.52-2.04h-10.7c-0.54,0-0.8,0.31-0.8,0.93v25.42h-6.56v-27.59
			c0-1.94,0.35-3.27,1.05-3.99c0.7-0.72,1.88-1.08,3.53-1.08H440.82z"/>
		<path class="st0" d="M467.66,521.96v-7.73h6.62v7.73h9.03v6.31h-9.03v15.46c0,1.85,0.34,3.13,1.02,3.84
			c0.68,0.7,1.8,1.05,3.37,1.05h4.52v6h-5.88c-1.69,0-3.15-0.18-4.36-0.55c-1.22-0.37-2.22-0.99-3-1.86
			c-0.79-0.87-1.36-2.02-1.73-3.46c-0.37-1.44-0.56-3.24-0.56-5.38v-15.09h-4.45v-6.31H467.66z"/>
		<path class="st0" d="M516.9,521.96v6.31h-18.06c-1.52,0-2.62,0.31-3.28,0.93c-0.66,0.62-0.99,1.55-0.99,2.78
			c0,1.16,0.32,2.03,0.96,2.63c0.64,0.6,1.87,0.9,3.68,0.9h7.67c2.26,0,4.13,0.25,5.6,0.74c1.46,0.5,2.62,1.16,3.46,1.98
			c0.84,0.83,1.43,1.79,1.76,2.91c0.33,1.11,0.5,2.31,0.5,3.59c0,1.44-0.2,2.77-0.59,3.99c-0.39,1.22-1.02,2.26-1.88,3.12
			c-0.87,0.87-1.98,1.55-3.34,2.04c-1.36,0.5-2.99,0.74-4.89,0.74h-18.99v-6.37h18.99c1.53,0,2.62-0.28,3.28-0.83
			c0.66-0.56,0.99-1.47,0.99-2.75c0-1.32-0.36-2.26-1.08-2.82c-0.72-0.55-1.91-0.83-3.56-0.83h-7.73c-2.27,0-4.12-0.26-5.57-0.77
			c-1.44-0.51-2.59-1.21-3.43-2.1c-0.84-0.89-1.43-1.91-1.76-3.06c-0.33-1.15-0.49-2.35-0.49-3.59c0-2.93,0.82-5.25,2.47-6.96
			c1.65-1.71,4.37-2.57,8.17-2.57H516.9z"/>
	</g>
</g>
</svg>
