<?xml version="1.0" encoding="utf-8"?>
<!-- Generator: Adobe Illustrator 27.0.0, SVG Export Plug-In . SVG Version: 6.00 Build 0)  -->
<svg version="1.1" id="Layer_1" xmlns="http://www.w3.org/2000/svg" xmlns:xlink="http://www.w3.org/1999/xlink" x="0px" y="0px"
	 viewBox="0 0 1280 630.11" style="enable-background:new 0 0 1280 630.11;" xml:space="preserve">
<style type="text/css">
	.st0{fill:#575757;}
	.st1{fill:#C60000;}
	.st2{fill:#06204F;}
	.st3{fill:#FFFFFF;}
	.st4{fill:#231F20;}
	.st5{fill:url(#SVGID_1_);}
	.st6{fill-rule:evenodd;clip-rule:evenodd;fill:url(#SVGID_00000098916179469138229030000002654900524280854668_);}
	.st7{fill-rule:evenodd;clip-rule:evenodd;fill:url(#SVGID_00000048493790937561229870000011301492356160264895_);}
	.st8{fill-rule:evenodd;clip-rule:evenodd;fill:#D02E2C;}
	.st9{fill-rule:evenodd;clip-rule:evenodd;fill:url(#SVGID_00000122698141008348834560000002158293229151661988_);}
</style>
<g>
	<path class="st0" d="M598.43,276.11v121.92h-21.31V276.11H598.43z"/>
	<path class="st0" d="M691.63,276.11c7.23,0,13.4,0.81,18.52,2.44c5.11,1.63,9.32,3.92,12.64,6.86c3.31,2.95,5.75,6.48,7.32,10.57
		c1.56,4.1,2.35,8.61,2.35,13.55c0,7.11-1.48,12.83-4.43,17.16s-7.31,7.65-13.09,9.93c5.78,2.41,10.23,5.87,13.36,10.38
		c3.13,4.52,4.69,10.32,4.69,17.43c0,4.94-0.78,9.46-2.35,13.55c-1.56,4.1-4,7.62-7.31,10.57c-3.31,2.95-7.52,5.27-12.64,6.95
		c-5.12,1.69-11.29,2.53-18.51,2.53h-54.18c-6.75,0-10.12-3.31-10.12-9.93V286.05c0-6.62,3.37-9.93,10.12-9.93H691.63z
		 M648.82,327.59h43.35c12.52,0,18.78-4.88,18.78-14.63c0-4.82-1.47-8.67-4.42-11.56c-2.96-2.89-7.68-4.34-14.18-4.34h-41.18
		c-1.56,0-2.35,0.72-2.35,2.17V327.59z M648.82,374.91c0,1.33,0.78,1.99,2.35,1.99h41.54c6.5,0,11.26-1.38,14.27-4.15
		c3.01-2.77,4.52-6.69,4.52-11.74c0-10.48-6.27-15.71-18.79-15.71h-43.89V374.91z"/>
	<path class="st0" d="M840.81,276.11v21.31h-35.58v100.6h-21.5v-100.6h-35.58v-21.31H840.81z"/>
	<path class="st0" d="M882.18,276.11v51.66h11.74c5.18,0,9.42-0.15,12.73-0.45c3.31-0.3,6.05-1,8.22-2.08c2.17-1.08,4-2.62,5.51-4.6
		c1.51-1.99,3.1-4.67,4.79-8.04l18.6-36.48h22.94l-19.14,37.93c-2.77,5.42-5.72,9.93-8.85,13.55c-3.13,3.62-7.22,6.5-12.28,8.67
		c2.89,0.72,5.42,1.72,7.58,2.98c2.17,1.26,4.18,2.83,6.05,4.69c1.86,1.87,3.64,4.09,5.33,6.68c1.69,2.59,3.43,5.63,5.24,9.12
		l19.69,38.29h-23.84l-18.6-36.12c-1.69-3.25-3.31-5.84-4.88-7.76c-1.56-1.93-3.55-3.43-5.96-4.52c-2.41-1.08-5.42-1.77-9.03-2.08
		c-3.61-0.3-8.31-0.45-14.09-0.45h-11.74v50.93h-21.31V276.11H882.18z"/>
	<path class="st0" d="M1004.45,398.03h-23.48l42.81-108.37c2.28-5.78,5.51-9.84,9.66-12.19s9.48-3.52,15.98-3.52
		c6.38,0,11.65,1.17,15.81,3.52s7.31,6.41,9.48,12.19l41.18,108.37h-23.66l-37.02-98.07c-1.08-2.77-3.07-4.15-5.96-4.15
		c-2.89,0-4.94,1.38-6.14,4.15L1004.45,398.03z"/>
	<path class="st0" d="M1199.69,276.11c6.86,0,12.76,1,17.7,2.98c4.94,1.99,9,4.64,12.19,7.95c3.19,3.31,5.54,7.2,7.05,11.65
		c1.51,4.46,2.26,9.09,2.26,13.9c0,3.86-0.48,7.68-1.44,11.47c-0.97,3.79-2.47,7.35-4.52,10.66c-2.05,3.31-4.7,6.23-7.95,8.76
		c-3.25,2.53-7.23,4.45-11.92,5.78l28.35,48.77h-23.66l-27.81-47.14h-31.79c-2.05,0-3.07,1.02-3.07,3.07v44.07h-21.31v-48.22
		c0-6.86,1.51-11.8,4.52-14.81c3.01-3.01,7.89-4.51,14.63-4.51h47.5c3.01,0,5.6-0.48,7.77-1.45c2.17-0.96,3.91-2.23,5.24-3.79
		c1.32-1.56,2.32-3.37,2.98-5.42c0.66-2.05,1-4.15,1-6.32c0-4.33-1.36-8.1-4.07-11.29c-2.71-3.19-7.01-4.78-12.91-4.78h-66.83
		v-21.31H1199.69z"/>
	<path class="st0" d="M596.27,412.33c8.97,0,15.79,2.5,20.45,7.5c4.66,5,7,12.68,7,23.03c0,10.29-2.33,17.94-7,22.94
		c-4.67,5-11.48,7.5-20.45,7.5h-21.49c-3.37,0-5.06-1.66-5.06-4.97V417.3c0-3.31,1.69-4.97,5.06-4.97H596.27z M580.37,461.55
		c0,0.72,0.39,1.08,1.17,1.08h14.72c5.9,0,10.17-1.56,12.82-4.69c2.65-3.13,3.98-8.19,3.98-15.17c0-6.98-1.31-12.03-3.93-15.13
		c-2.62-3.1-6.91-4.65-12.87-4.65h-14.72c-0.78,0-1.17,0.36-1.17,1.08V461.55z"/>
	<path class="st0" d="M666.8,425.61c5.66,0,9.75,1.28,12.28,3.84c2.53,2.56,3.79,6.15,3.79,10.79c0,4.4-1.23,7.78-3.7,10.16
		c-2.47,2.38-6.62,3.57-12.46,3.57h-22.67v3.43c0,1.92,0.56,3.51,1.67,4.74c1.11,1.23,2.99,1.85,5.64,1.85h29.17v9.3h-29.17
		c-3.01,0-5.55-0.39-7.63-1.17c-2.08-0.78-3.79-1.88-5.15-3.3c-1.36-1.41-2.33-3.07-2.94-4.97c-0.6-1.9-0.9-3.99-0.9-6.28v-16.26
		c0-2.22,0.3-4.3,0.9-6.23c0.6-1.92,1.58-3.59,2.94-5.01c1.35-1.41,3.07-2.52,5.15-3.3c2.08-0.78,4.62-1.17,7.63-1.17H666.8z
		 M644.04,446.46h22.4c2.59,0,4.41-0.51,5.46-1.53c1.05-1.02,1.58-2.41,1.58-4.16c0-1.81-0.54-3.25-1.62-4.33
		c-1.08-1.08-2.8-1.62-5.15-1.62h-15.35c-2.65,0-4.53,0.63-5.64,1.9c-1.11,1.26-1.67,2.83-1.67,4.69V446.46z"/>
	<path class="st0" d="M697.95,425.61l15.89,38.29c0.36,0.96,1.15,1.45,2.35,1.45c1.26,0,2.11-0.48,2.53-1.45l16.53-38.29h10.29
		l-18.42,42.53c-1.02,2.29-2.42,3.9-4.19,4.83c-1.78,0.93-4.02,1.4-6.73,1.4c-2.77,0-5.04-0.48-6.81-1.44
		c-1.78-0.96-3.12-2.56-4.02-4.79l-17.52-42.53H697.95z"/>
	<path class="st0" d="M782.48,425.61c5.66,0,9.75,1.28,12.28,3.84c2.53,2.56,3.79,6.15,3.79,10.79c0,4.4-1.23,7.78-3.7,10.16
		c-2.47,2.38-6.62,3.57-12.46,3.57h-22.66v3.43c0,1.92,0.55,3.51,1.67,4.74s2.99,1.85,5.64,1.85h29.17v9.3h-29.17
		c-3.01,0-5.55-0.39-7.63-1.17c-2.08-0.78-3.79-1.88-5.15-3.3c-1.35-1.41-2.33-3.07-2.93-4.97c-0.6-1.9-0.9-3.99-0.9-6.28v-16.26
		c0-2.22,0.3-4.3,0.9-6.23c0.6-1.92,1.58-3.59,2.93-5.01c1.36-1.41,3.07-2.52,5.15-3.3c2.08-0.78,4.62-1.17,7.63-1.17H782.48z
		 M759.72,446.46h22.4c2.59,0,4.41-0.51,5.46-1.53c1.05-1.02,1.58-2.41,1.58-4.16c0-1.81-0.54-3.25-1.62-4.33
		c-1.08-1.08-2.8-1.62-5.15-1.62h-15.35c-2.65,0-4.53,0.63-5.64,1.9s-1.67,2.83-1.67,4.69V446.46z"/>
	<path class="st0" d="M819.87,404.92v68.36h-9.57v-68.36H819.87z"/>
	<path class="st0" d="M862.04,425.61c6.32,0,11.35,1.97,15.08,5.91c3.73,3.94,5.6,9.92,5.6,17.93c0,8.07-1.87,14.06-5.6,17.97
		c-3.73,3.92-8.76,5.87-15.08,5.87h-10.02c-6.38,0-11.42-1.96-15.12-5.87c-3.7-3.91-5.55-9.9-5.55-17.97
		c0-8.06,1.85-14.05,5.55-17.97c3.7-3.91,8.74-5.87,15.12-5.87H862.04z M852.92,434.82c-4.15,0-7.18,1.15-9.08,3.43
		c-1.89,2.29-2.84,6.02-2.84,11.2c0,5.18,0.95,8.9,2.84,11.15c1.9,2.26,4.93,3.39,9.08,3.39h8.22c4.15,0,7.18-1.13,9.07-3.39
		c1.9-2.26,2.84-5.97,2.84-11.15c0-5.18-0.95-8.91-2.84-11.2c-1.9-2.28-4.92-3.43-9.07-3.43H852.92z"/>
	<path class="st0" d="M924.71,425.61c6.32,0,11.33,1.97,15.04,5.91c3.7,3.94,5.55,9.92,5.55,17.93c0,8.07-1.85,14.06-5.55,17.97
		c-3.7,3.92-8.71,5.87-15.04,5.87h-21.13v19.14h-9.57v-46.42c0-6.92,1.47-12.06,4.43-15.4c2.95-3.34,7.31-5.01,13.09-5.01H924.71z
		 M903.58,463.99h20.14c4.16,0,7.18-1.13,9.08-3.39c1.9-2.26,2.84-5.97,2.84-11.15c0-5.18-0.95-8.91-2.84-11.2
		c-1.9-2.28-4.92-3.43-9.08-3.43h-9.39c-3.92,0-6.69,0.9-8.31,2.71c-1.62,1.81-2.44,4.78-2.44,8.94V463.99z"/>
	<path class="st0" d="M1012.49,425.61c8.13,0,14.18,1.82,18.15,5.46c3.98,3.64,5.96,8.77,5.96,15.4v26.82h-9.66v-26.82
		c0-3.79-1.13-6.68-3.39-8.67c-2.26-1.99-5.91-2.98-10.97-2.98h-11.2v38.47h-9.66v-38.47h-24.2c-0.79,0-1.17,0.45-1.17,1.36v37.12
		h-9.57v-40.28c0-2.83,0.51-4.77,1.53-5.83c1.02-1.05,2.74-1.58,5.15-1.58H1012.49z"/>
	<path class="st0" d="M1081.03,425.61c5.66,0,9.75,1.28,12.28,3.84c2.53,2.56,3.79,6.15,3.79,10.79c0,4.4-1.23,7.78-3.7,10.16
		c-2.47,2.38-6.62,3.57-12.46,3.57h-22.66v3.43c0,1.92,0.55,3.51,1.67,4.74s2.99,1.85,5.64,1.85h29.17v9.3h-29.17
		c-3.01,0-5.55-0.39-7.63-1.17c-2.08-0.78-3.79-1.88-5.15-3.3c-1.35-1.41-2.33-3.07-2.93-4.97c-0.6-1.9-0.9-3.99-0.9-6.28v-16.26
		c0-2.22,0.3-4.3,0.9-6.23c0.6-1.92,1.58-3.59,2.93-5.01c1.36-1.41,3.07-2.52,5.15-3.3s4.62-1.17,7.63-1.17H1081.03z
		 M1058.28,446.46h22.4c2.59,0,4.41-0.51,5.46-1.53c1.05-1.02,1.58-2.41,1.58-4.16c0-1.81-0.54-3.25-1.62-4.33
		c-1.08-1.08-2.8-1.62-5.15-1.62h-15.35c-2.65,0-4.53,0.63-5.64,1.9s-1.67,2.83-1.67,4.69V446.46z"/>
	<path class="st0" d="M1135.22,425.61c8.12,0,14.16,1.82,18.1,5.46c3.94,3.64,5.92,8.77,5.92,15.4v26.82h-9.67v-26.82
		c0-3.79-1.13-6.68-3.38-8.67c-2.26-1.99-5.92-2.98-10.97-2.98h-15.62c-0.79,0-1.17,0.45-1.17,1.36v37.12h-9.57v-40.28
		c0-2.83,0.51-4.77,1.53-5.83c1.02-1.05,2.74-1.58,5.15-1.58H1135.22z"/>
	<path class="st0" d="M1174.41,425.61v-11.29h9.67v11.29h13.18v9.21h-13.18v22.58c0,2.71,0.5,4.58,1.49,5.6
		c1,1.02,2.63,1.53,4.92,1.53h6.6v8.76h-8.58c-2.47,0-4.59-0.27-6.37-0.81c-1.78-0.54-3.24-1.44-4.38-2.71
		c-1.15-1.26-1.99-2.95-2.53-5.06s-0.81-4.73-0.81-7.86v-22.03h-6.5v-9.21H1174.41z"/>
	<path class="st0" d="M1246.3,425.61v9.21h-26.37c-2.22,0-3.82,0.45-4.78,1.36c-0.96,0.9-1.45,2.26-1.45,4.06
		c0,1.69,0.47,2.97,1.4,3.84c0.93,0.87,2.72,1.31,5.38,1.31h11.2c3.31,0,6.03,0.36,8.17,1.08c2.14,0.72,3.83,1.69,5.06,2.89
		c1.23,1.2,2.09,2.62,2.57,4.24c0.48,1.62,0.72,3.37,0.72,5.24c0,2.11-0.29,4.05-0.86,5.83s-1.49,3.3-2.75,4.56
		c-1.26,1.26-2.89,2.26-4.88,2.98c-1.99,0.72-4.37,1.08-7.14,1.08h-27.72v-9.3h27.72c2.23,0,3.83-0.4,4.79-1.22
		c0.96-0.81,1.45-2.15,1.45-4.02c0-1.92-0.53-3.29-1.58-4.11c-1.06-0.81-2.79-1.22-5.19-1.22h-11.29c-3.31,0-6.02-0.38-8.13-1.13
		c-2.11-0.76-3.78-1.77-5.01-3.07c-1.23-1.3-2.09-2.78-2.57-4.47c-0.48-1.68-0.72-3.43-0.72-5.24c0-4.27,1.2-7.66,3.61-10.16
		c2.41-2.5,6.38-3.75,11.92-3.75H1246.3z"/>
</g>
<g>
	<path class="st1" d="M410.77,192.43c68.36,40.89,122.74,131.16,98.18,236.66c-22.74,97.66-112.53,173.22-223.6,168.32
		c-103.32-4.56-187.94-81.39-205.91-180.72c-18.57-102.64,39.01-186.9,100.99-223.47c0,4.82,0.29,9.5-0.17,14.11
		c-0.15,1.49-2.06,3.06-3.51,4.12c-13.89,10.21-26.54,21.75-37.55,35.02c-23.8,28.68-39.98,61.08-46.26,97.95
		c-7.79,45.74-0.89,89.14,21.59,130.03c29.1,52.93,72.66,87.33,130.9,103.05c21.38,5.77,43.22,7.13,65.29,5.52
		c33.47-2.44,64.85-11.67,93.09-29.93c47.9-30.98,79.84-73.61,92.23-129.85c18.69-84.8-16.91-165.74-80.7-211.21
		c-3.47-2.47-5.11-5.1-4.63-9.38C411.07,199.4,410.77,196.08,410.77,192.43z"/>
	<path class="st1" d="M217.54,175.76c4.17,0,8,0,12.15,0c0,95.05,0,189.93,0,284.98c44.03,0,87.74,0,131.78,0
		c0-94.91,0-189.79,0-284.9c4.42,0,8.5,0,12.91,0c0.04,0.96,0.12,1.95,0.12,2.95c0.01,96.63,0.01,193.26,0,289.9
		c0,0.85-0.04,1.7-0.03,2.55c0.04,2.04-1.05,2.89-2.99,2.89c-0.94,0-1.89,0.02-2.83,0.02c-49.31,0-98.61,0-147.92,0
		c-1.01,0-2.03,0-3.2,0C217.54,374.55,217.54,275.25,217.54,175.76z"/>
	<path class="st0" d="M253.23,98.3c3.97,0,7.79,0,11.93,0c0.05,1.02,0.14,2.02,0.14,3.02c0,106.8,0,213.61-0.01,320.41
		c0,3.96,0.39,4.44,4.31,4.45c17.25,0.05,34.5,0.06,51.75,0.06c4.21,0,5.27-1.2,5.27-5.79c0-50.15-0.01-100.3-0.01-150.45
		c0-55.99,0-111.99,0-167.98c0-4.24,0-4.24,4.11-4.39c7.84-0.28,8.13-0.05,8.13,7.86c0.01,109.35,0.01,218.7,0,328.05
		c0,4.81-0.19,5.02-4.91,5.02c-25.45,0.01-50.9,0.01-76.36,0.01c-1.39,0-2.79,0-4.37,0C253.23,324.96,253.23,211.71,253.23,98.3z"/>
	<path class="st0" d="M397.22,496.96c0-81.26,0-162.28,0-243.54c4.15,0,8.04,0,12.28,0c0.07,1.12,0.21,2.3,0.21,3.48
		c0.01,83.04,0,166.09,0.06,249.13c0,2.76-0.58,3.68-3.56,3.68c-73.52-0.09-147.05-0.07-220.57-0.08c-1.01,0-2.02-0.09-3.14-0.14
		c0-85.5,0-170.75,0-256.16c3.8,0,7.42,0,11.54,0c0,2.28,0,4.41,0,6.55c0.01,76.73,0.01,153.46,0.02,230.18c0,7.02,0,7.04,7.04,7.04
		c64.29,0.01,128.57,0,192.86,0C394.96,497.11,395.97,497.02,397.22,496.96z"/>
	<path class="st0" d="M289.64,19.73c4.08,0,7.72,0,11.82,0c0.15,2.16,0.43,4.36,0.43,6.56c0.02,90.59,0.01,181.18,0.02,271.77
		c0,31.2,0.05,62.4,0.07,93.6c0,2.93-1.28,4.35-4.17,4.51c-1.97,0.11-3.96-0.01-5.93,0.09c-1.76,0.09-2.37-0.73-2.25-2.37
		c0.06-0.84,0-1.7,0-2.54c0-122.36,0-244.71,0-367.07C289.64,22.81,289.64,21.34,289.64,19.73z"/>
</g>
</svg>
