<?xml version="1.0" encoding="utf-8"?>
<!-- Generator: Adobe Illustrator 27.0.0, SVG Export Plug-In . SVG Version: 6.00 Build 0)  -->
<svg version="1.1" id="Layer_1" xmlns="http://www.w3.org/2000/svg" xmlns:xlink="http://www.w3.org/1999/xlink" x="0px" y="0px"
	 viewBox="0 0 1280 630.11" style="enable-background:new 0 0 1280 630.11;" xml:space="preserve">
<style type="text/css">
	.st0{fill:#575757;}
	.st1{fill:#C60000;}
	.st2{fill:#06204F;}
	.st3{fill:#FFFFFF;}
	.st4{fill:url(#SVGID_1_);}
	.st5{fill-rule:evenodd;clip-rule:evenodd;fill:#FFFFFF;}
	.st6{fill-rule:evenodd;clip-rule:evenodd;fill:#D02E2C;}
	.st7{fill-rule:evenodd;clip-rule:evenodd;fill:url(#SVGID_00000008145908549247486760000008391095385315459746_);}
</style>
<path class="st3" d="M366.48,381.98c-3.23,6.73-6.49,13.45-9.7,20.19c-4.57,9.59-9.08,19.21-13.69,28.78
	c-0.76,1.58-1.81,3.06-2.92,4.43c-5.89,7.35-15.52,7.43-20.48-0.58c-4.95-8-8.79-16.69-13.01-25.13
	c-3.83-7.65-7.5-15.38-11.29-23.05c-0.7-1.42-1.63-2.72-3.13-5.19c-0.28,2.3-0.52,3.36-0.52,4.42c0,23.08-0.08,46.15,0.13,69.22
	c0.04,4.36-1.36,5.66-5.58,5.4c-5.31-0.33-10.67-0.33-15.97,0c-4.3,0.26-5.59-1.27-5.57-5.53c0.14-35.5,0.08-71,0.08-106.5
	c0-6.66,0.13-13.32-0.05-19.97c-0.1-3.56,1-5.1,4.8-4.94c5.91,0.26,11.84,0.25,17.75,0c3.2-0.14,4.77,1.19,6.09,3.91
	c11.09,22.82,22.3,45.58,33.48,68.35c0.77,1.57,1.61,3.11,2.81,5.42c1.1-1.67,1.99-2.74,2.58-3.97
	c11.42-23.49,22.74-47.02,34.31-70.44c0.76-1.53,3.26-2.97,5.03-3.08c6.04-0.38,12.14,0.07,18.19-0.22c3.66-0.18,4.53,1.23,4.51,4.6
	c-0.1,23.07-0.04,46.15-0.04,69.23c0,19.23-0.12,38.46,0.09,57.69c0.05,4.31-1.28,5.72-5.56,5.44c-5.45-0.35-10.96-0.29-16.42-0.01
	c-3.6,0.18-4.62-1.17-4.6-4.58c0.11-23.07,0.07-46.15,0.08-69.23c0-1.42,0-2.84,0-4.26C367.41,382.26,366.95,382.12,366.48,381.98z"
	/>
<path class="st3" d="M610.15,413.79c0,3.25-0.34,6.55,0.06,9.76c1.78,14.23-6.52,22.86-17.09,29.57
	c-14.69,9.32-31.08,9.65-47.59,6.46c-21.62-4.18-31.98-18.88-35.93-39.39c-3.4-17.62-2.96-35.48-1.33-53.05
	c2.15-23.05,16.91-41.87,44.48-44.29c13.94-1.22,27.14,0.39,39.18,7.93c12.99,8.14,18.3,20.39,18.33,35.24
	c0,1.04-1.94,2.92-3.05,2.98c-6.05,0.3-12.13,0.07-18.2,0.18c-2.71,0.05-3.5-1.24-3.78-3.72c-0.91-8.05-4.45-14.51-12.49-17.27
	c-8.87-3.04-17.67-3.06-25.95,2.23c-5.08,3.24-7.89,8.04-8.96,13.71c-3.31,17.59-3.27,35.3-0.44,52.92
	c1.73,10.79,8.75,17.79,19.09,19.53c11.07,1.86,21.56,0.77,28.28-9.7c1.75-2.73,1.9-6.61,2.28-10.02c0.08-0.75-1.95-2.35-3.14-2.49
	c-3.07-0.36-6.21-0.23-9.31-0.1c-2.57,0.11-3.8-0.66-3.71-3.49c0.17-5.17,0.13-10.35,0.04-15.53c-0.04-2.47,0.96-3.42,3.41-3.41
	c10.8,0.06,21.61,0.09,32.41-0.01c2.84-0.03,3.5,1.25,3.45,3.79C610.07,401.66,610.15,407.73,610.15,413.79z"/>
<path class="st3" d="M410.98,377.79c0-16.41,0.11-32.82-0.08-49.23c-0.04-3.83,0.96-5.06,4.95-5.03
	c26.63,0.18,53.26,0.16,79.88,0.01c4.01-0.02,5.68,1.03,5.41,5.22c-0.3,4.71-0.28,9.47-0.01,14.19c0.21,3.56-1.11,4.63-4.57,4.6
	c-17.6-0.12-35.21-0.06-52.81-0.06c-5.95,0-6.06,0.08-6.09,5.83c-0.04,6.95,0.2,13.91-0.09,20.84c-0.17,4.02,1.36,5.05,5.14,4.98
	c11.54-0.19,23.08,0.07,34.61-0.14c3.83-0.07,4.93,1.29,4.51,4.91c-0.58,4.98-1.06,10-1.18,15.01c-0.08,3.43-1.62,4.2-4.68,4.17
	c-11.09-0.11-22.19,0.08-33.28-0.11c-3.76-0.07-5.43,0.9-5.11,4.96c0.48,6.17,0.32,12.4,0.84,18.57c0.41,4.75,3.17,7.91,8.07,8.64
	c3.93,0.59,7.89,1.26,11.84,1.31c12.72,0.17,25.44,0.14,38.17,0.01c3.37-0.03,4.83,0.92,4.63,4.56c-0.29,5.16-0.12,10.35-0.07,15.52
	c0.02,2.46-0.72,3.93-3.53,3.87c-18.91-0.39-37.87-0.04-56.73-1.23c-22.66-1.43-29.22-12.8-29.76-33.5
	C410.64,409.73,410.97,393.76,410.98,377.79z"/>
<path class="st3" d="M730.06,460.29c-9.21,0-17.58,0.1-25.93-0.13c-0.92-0.03-2.19-1.76-2.62-2.95c-1.95-5.41-3.81-10.86-5.4-16.38
	c-0.87-3.01-2.28-4.36-5.58-4.32c-12.42,0.16-24.84,0.18-37.26-0.01c-3.54-0.05-4.93,1.44-5.8,4.6c-1.53,5.53-3.27,11.02-5.34,16.36
	c-0.51,1.31-2.61,2.76-4.03,2.82c-6.94,0.29-13.89,0.07-20.84,0.16c-3.04,0.04-3.54-1.23-2.61-3.86
	c8.93-25.29,17.82-50.59,26.7-75.9c5.27-15.02,10.39-30.09,15.73-45.09c3.63-10.19,12.1-14.4,21.23-11.08
	c4.78,1.74,6.65,5.8,8.1,9.91c13.71,38.77,27.28,77.6,40.86,116.42C728.26,453.66,728.98,456.6,730.06,460.29z M688.48,414.15
	c-5.3-17.82-10.28-34.56-15.26-51.31c-0.39,0-0.77,0-1.16,0c-0.69,1.86-1.44,3.7-2.05,5.58c-1.75,5.45-3.43,10.93-5.16,16.4
	c-2.61,8.28-5.3,16.53-7.82,24.84c-0.51,1.68-1.44,4.35,1.65,4.42C668.23,414.29,677.79,414.15,688.48,414.15z"/>
<radialGradient id="SVGID_1_" cx="737.0646" cy="329.4714" r="428.652" gradientUnits="userSpaceOnUse">
	<stop  offset="0" style="stop-color:#F13E38"/>
	<stop  offset="0.3249" style="stop-color:#EE3C37"/>
	<stop  offset="0.5783" style="stop-color:#E43733"/>
	<stop  offset="0.8067" style="stop-color:#D42E2D"/>
	<stop  offset="1" style="stop-color:#BF2225"/>
</radialGradient>
<path class="st4" d="M1137.77,410.26c0.15-1.66,0.19-3.34,0.19-5c0.02-25.44,0.09-50.87-0.08-76.31c-0.03-4.09,1.15-5.43,5.26-5.17
	c5.45,0.35,10.95,0.2,16.42,0.02c3.17-0.11,4.57,0.88,4.56,4.24c-0.06,39.93-0.04,79.86-0.05,119.78c0,5.72-2.47,10.36-7.68,12.43
	c-6.59,2.61-13.27,0.93-18.06-3.94c-4.59-4.67-8.17-10.4-11.75-15.96c-13.69-21.22-27.2-42.55-40.8-63.82
	c-0.35-0.55-1-0.92-2.31-2.09c-0.29,2.59-0.65,4.35-0.65,6.11c-0.04,24.7-0.11,49.39,0.06,74.09c0.03,4.23-1.18,5.82-5.51,5.56
	c-5.46-0.32-10.95-0.2-16.42-0.04c-3.15,0.09-4.53-0.87-4.52-4.27c0.08-42.59,0.08-85.18,0-127.77c-0.01-3.4,1.41-4.34,4.54-4.25
	c5.47,0.15,10.96,0.23,16.42-0.04c3.41-0.17,5.47,1.12,7.22,3.93c13.8,22.19,27.7,44.33,41.57,66.48
	c3.4,5.43,6.83,10.84,10.25,16.26C1136.79,410.41,1137.4,410.35,1137.77,410.26z M946.11,430.55c4.22,12.57,11.8,21.84,24.65,26.56
	c11.31,4.16,23.01,4.44,34.59,3.21c21.4-2.28,34.84-11.62,40.31-33.25c5.83-23.06,6.01-46.58,0.21-69.76
	c-3.62-14.49-12.07-25.39-26.69-30.78c-12.47-4.6-25.34-4.6-38.07-2.69c-17.68,2.65-29.71,12.65-35.4,30.01
	c-4.04,12.34-4.11,24.99-3.88,38C941.49,404.74,941.85,417.86,946.11,430.55z M1025.54,402.73c-0.5,5.55-1.31,11.13-3.36,16.35
	c-1.73,4.4-4.35,8.5-7.97,11.54c-10.51,8.8-29.6,8.47-39.55-1.06c-3.13-3-5.29-6.91-6.75-11c-3.08-8.65-3.87-18.07-4.08-27.18
	c-0.21-9.18,0.88-18.54,4.45-27.06c0.96-2.29,2.19-4.48,3.7-6.46c9.93-12.91,29.57-15.12,42.17-4.99c0.66,0.53,1.29,1.09,1.9,1.68
	c1.69,1.64,3.17,3.5,4.4,5.51c3.61,5.84,4.94,12.64,5.37,19.4c0.26,4.08,0.36,8.17,0.29,12.25
	C1026.06,395.38,1025.87,399.06,1025.54,402.73z M933.97,385.56c-0.4-15.64-2.12-33.26-12.16-45.99
	c-6.02-7.63-15.02-12.57-24.46-14.9c-10.85-2.68-22.42-2.32-33.37-0.45c-15.66,2.67-26.9,11.51-32.76,26.57
	c-3.53,9.06-4.48,18.55-5.06,28.2c-1.07,17.65-0.76,35.15,4.63,52.13c4.02,12.64,12,21.8,25.03,26.05
	c13.72,4.48,27.58,4.52,41.56,1.68c8.66-1.75,18.22-6.24,23.47-13.53c10.58-14.68,13.13-35.22,13.2-53.41
	C934.05,389.77,934.02,387.64,933.97,385.56z M907.3,416.23c-1.2,3.98-2.72,7.92-5.18,11.26c-6.34,8.65-19.19,10.68-29.14,8.77
	c-13.99-2.69-20.1-10.72-22.72-25.3c-2.32-12.89-2.52-25.81-0.06-38.72c2.11-11.08,6.93-20.24,18.52-23.69
	c12.62-3.75,24.49-2.46,33.56,8.12c6.12,7.14,7.39,16.57,8.2,25.6c0.27,3.06,0.41,6.12,0.4,9.18
	C910.86,399.83,909.73,408.18,907.3,416.23z M788.91,349.14c-0.58,1.05-1.11,2.13-1.79,3.12c-11.48,16.66-23.09,33.23-34.45,49.97
	c-6.79,10-14.32,19.73-19.44,30.57c-4.96,10.49-2.1,21.31,8.17,24.92c3.82,1.34,8.1,1.86,12.17,1.91
	c21.15,0.24,42.31,0.17,63.46,0.33c2.97,0.02,3.94-1.15,3.88-3.92c-0.1-4.58-0.27-9.18,0.05-13.74c0.43-6.18-6.09-5.18-10.34-5.17
	c-15.65,0.03-31.3,0.06-46.94,0.09c-0.84,0-4.23,0.16-4.14-1.27c0.09-1.27,1.55-2.81,2.23-3.82c18.99-27.98,38.01-55.94,56.97-83.94
	c0.96-1.41,1.95-3.12,2.03-4.74c0.25-5.31,0.07-10.64,0.1-15.96c0.01-2.39-1.02-3.44-3.48-3.44c-26.18,0.06-52.37,0.09-78.55,0.04
	c-3.01-0.01-3.82,1.4-3.76,4.09c0.1,4.58,0.26,9.18-0.04,13.74c-0.11,1.67,0,3.61,1.64,4.49c1.93,1.03,4.79,0.54,6.86,0.51
	c11.53,0,23.07-0.51,34.6-0.15c2.49,0.08,4.97,0.19,7.45,0.34c0.77,0.05,3.04-0.2,3.63,0.25c0.13,0.09,0.2,0.2,0.25,0.3
	C789.64,348.12,789.18,348.65,788.91,349.14z"/>
<g>
	<g>
		<path class="st5" d="M338.23,126.69c-0.31,3.16-1.41,5.58-2.25,7.08c-12.2,24.59-24.39,49.18-36.58,73.78l-34.77-60.38
			c-2.72-4.73-4.37-10.05-4.54-15.5v-0.14c-0.01-0.53-0.01-1.06-0.01-1.57c0.07-5.78,1.61-11.46,4.17-16.66l3.2-6.49l24.1-48.93
			c0.14-0.26,1.86-3.4,5.54-3.8c2.53-0.28,5.05,0.85,6.57,2.94c10.55,19.24,21.08,38.5,31.63,57.74
			C336.27,116.31,338.83,120.77,338.23,126.69z"/>
		<path class="st5" d="M343.14,295.27c-1.72,3.21-5.13,5.21-8.84,5.21c-11.39-0.3-32.31-1.18-52.53-4.21
			c-4.04-0.6-9.99-1.58-16.14-5.7c-8.07-5.42-11.97-13.23-13.83-17.98c-10.71-19.12-21.44-38.26-32.15-57.39
			c-0.66-1.92-1.46-4.98-1.39-8.82c0.08-3.82,1-6.84,1.73-8.73c15.82-30.28,31.63-60.56,47.46-90.84l-3.2,6.49
			c-2.56,5.2-4.1,10.87-4.17,16.66c0,0.51,0,1.04,0.01,1.57v0.14c0.16,5.46,1.81,10.78,4.54,15.5l34.77,60.38
			c14.58,26.16,29.17,52.33,43.75,78.49C343.37,286.43,345.52,290.82,343.14,295.27z"/>
	</g>
	<g>
		<path class="st6" d="M242.16,320.7c-16.79,32.59-33.6,65.2-50.4,97.8c0.88-4.04,1.86-10.94,0.18-19.19
			c-1.48-7.23-4.37-12.27-5.36-14c-3.99-6.97-19.93-35.29-43.92-77.84c-15.8-28.04-35.1-62.26-56.75-100.63
			c-0.38-0.5-2.97-4.06-1.84-8.48c1-3.95,4.6-6.97,9.05-7.49l67.71,4.14c6.2,0.37,12.32,1.86,17.89,4.66
			c0.49,0.24,0.97,0.5,1.46,0.77c0.07,0.03,0.14,0.07,0.2,0.11c6.92,3.83,12.53,9.64,16.44,16.52c24.01,42.2,41.13,72.81,44.9,79.72
			c0.84,1.52,2.71,5.02,3.22,9.9c0.05,0.43,0.08,0.85,0.11,1.26C245.29,312.37,244.19,316.78,242.16,320.7z"/>
		
			<linearGradient id="SVGID_00000085221571899155957800000006962793458639639434_" gradientUnits="userSpaceOnUse" x1="95.4119" y1="404.0862" x2="192.8522" y2="404.0862">
			<stop  offset="0.1754" style="stop-color:#E82434"/>
			<stop  offset="0.5917" style="stop-color:#C61C27"/>
			<stop  offset="1" style="stop-color:#A01418"/>
		</linearGradient>
		<path style="fill-rule:evenodd;clip-rule:evenodd;fill:url(#SVGID_00000085221571899155957800000006962793458639639434_);" d="
			M191.76,418.5l-38.78,76.06c-1.37,3.66-4.83,6.11-8.68,6.13c-3.57,0.03-6.89-2.07-8.46-5.36c-12.65-22.76-25.3-45.51-37.94-68.28
			c-1.29-3.97-2.78-10.24-2.42-17.98c0.3-6.46,1.79-11.71,3.11-15.3c14.69-28.76,29.39-57.54,44.08-86.3
			c23.98,42.55,39.92,70.86,43.92,77.84c0.99,1.73,3.89,6.77,5.36,14C193.61,407.56,192.64,414.47,191.76,418.5z"/>
	</g>
</g>
<g>
	<g>
		<g>
			<path class="st3" d="M760.1,492.55c-0.13,0.24-0.26,0.42-0.4,0.55c-0.14,0.12-0.32,0.18-0.55,0.18c-0.24,0-0.52-0.14-0.83-0.41
				c-0.32-0.27-0.72-0.58-1.2-0.91c-0.48-0.33-1.07-0.63-1.75-0.91c-0.68-0.27-1.51-0.41-2.48-0.41c-0.91,0-1.72,0.14-2.42,0.42
				s-1.29,0.67-1.76,1.15c-0.47,0.48-0.83,1.05-1.06,1.71c-0.24,0.65-0.36,1.36-0.36,2.12c0,0.97,0.21,1.77,0.62,2.41
				s0.96,1.18,1.64,1.64c0.68,0.45,1.45,0.84,2.32,1.18c0.86,0.33,1.75,0.67,2.65,1.03c0.91,0.36,1.79,0.76,2.65,1.2
				c0.86,0.44,1.64,1.01,2.32,1.68c0.68,0.68,1.23,1.51,1.64,2.5s0.62,2.2,0.62,3.64c0,1.52-0.23,2.95-0.67,4.28
				s-1.11,2.49-1.97,3.48c-0.86,0.99-1.92,1.76-3.18,2.33s-2.69,0.85-4.29,0.85c-1.95,0-3.73-0.41-5.34-1.22
				c-1.61-0.82-2.98-1.92-4.12-3.31l1.18-2.23c0.11-0.18,0.25-0.33,0.41-0.45c0.16-0.12,0.34-0.18,0.54-0.18
				c0.29,0,0.63,0.18,1.01,0.54c0.38,0.36,0.85,0.76,1.42,1.2c0.57,0.44,1.26,0.84,2.06,1.2c0.81,0.36,1.79,0.55,2.96,0.55
				c0.97,0,1.83-0.15,2.59-0.46c0.76-0.31,1.4-0.74,1.93-1.3c0.53-0.56,0.93-1.22,1.21-2s0.42-1.64,0.42-2.59
				c0-1.05-0.21-1.91-0.62-2.58s-0.96-1.23-1.63-1.68c-0.67-0.45-1.44-0.84-2.31-1.15c-0.86-0.31-1.75-0.64-2.65-0.97
				s-1.79-0.72-2.65-1.15c-0.86-0.44-1.63-1-2.31-1.7c-0.67-0.69-1.22-1.56-1.63-2.61c-0.41-1.04-0.62-2.33-0.62-3.87
				c0-1.23,0.21-2.42,0.62-3.56c0.41-1.15,1.01-2.17,1.8-3.05c0.79-0.89,1.76-1.6,2.92-2.13c1.16-0.53,2.49-0.8,3.99-0.8
				c1.69,0,3.22,0.31,4.61,0.92c1.39,0.61,2.61,1.5,3.64,2.67L760.1,492.55z"/>
			<path class="st3" d="M817.98,504.5c0,2.6-0.36,4.99-1.07,7.16c-0.72,2.17-1.73,4.04-3.03,5.61c-1.31,1.57-2.88,2.78-4.71,3.65
				s-3.86,1.3-6.08,1.3c-2.22,0-4.24-0.43-6.07-1.3c-1.83-0.86-3.39-2.08-4.7-3.65c-1.31-1.57-2.32-3.44-3.03-5.61
				c-0.72-2.17-1.07-4.56-1.07-7.16c0-2.6,0.36-4.99,1.07-7.16c0.72-2.17,1.73-4.05,3.03-5.62c1.31-1.58,2.87-2.8,4.7-3.67
				c1.83-0.87,3.85-1.31,6.07-1.31c2.22,0,4.24,0.44,6.08,1.31s3.4,2.1,4.71,3.67c1.31,1.58,2.32,3.45,3.03,5.62
				C817.62,499.51,817.98,501.9,817.98,504.5z M813.78,504.5c0-2.13-0.25-4.05-0.76-5.74c-0.51-1.7-1.22-3.13-2.15-4.3
				s-2.05-2.07-3.37-2.7c-1.32-0.63-2.79-0.95-4.42-0.95c-1.62,0-3.08,0.32-4.4,0.95c-1.32,0.63-2.45,1.53-3.38,2.7
				c-0.93,1.17-1.65,2.61-2.16,4.3c-0.51,1.7-0.76,3.61-0.76,5.74s0.25,4.04,0.76,5.73c0.5,1.69,1.22,3.12,2.16,4.29
				c0.93,1.17,2.06,2.07,3.38,2.69s2.79,0.93,4.4,0.93c1.63,0,3.1-0.31,4.42-0.93c1.32-0.62,2.44-1.52,3.37-2.69s1.64-2.6,2.15-4.29
				C813.53,508.55,813.78,506.64,813.78,504.5z"/>
			<path class="st3" d="M850.61,517.91h13.06v3.95h-17.15v-34.73h4.09V517.91z"/>
			<path class="st3" d="M902.87,518.12c1.25,0,2.37-0.24,3.35-0.73c0.98-0.49,1.82-1.16,2.5-2.04c0.68-0.87,1.2-1.92,1.56-3.13
				s0.54-2.54,0.54-4v-21.11h4.07v21.11c0,2-0.28,3.86-0.83,5.58c-0.55,1.71-1.35,3.2-2.38,4.45s-2.29,2.23-3.78,2.94
				c-1.49,0.71-3.16,1.07-5.01,1.07c-1.85,0-3.53-0.36-5.01-1.07c-1.49-0.71-2.75-1.69-3.79-2.94s-1.84-2.73-2.39-4.45
				c-0.56-1.71-0.83-3.57-0.83-5.58v-21.11h4.07v21.09c0,1.45,0.18,2.79,0.54,4c0.36,1.21,0.88,2.25,1.56,3.13
				c0.68,0.87,1.52,1.56,2.51,2.05C900.5,517.88,901.62,518.12,902.87,518.12z"/>
			<path class="st3" d="M965.42,487.13v3.95h-9.75v30.78h-4.09v-30.78h-9.8v-3.95H965.42z"/>
			<path class="st3" d="M997.52,521.86h-4.09v-34.73h4.09V521.86z"/>
			<path class="st3" d="M1056.62,504.5c0,2.6-0.36,4.99-1.07,7.16c-0.72,2.17-1.73,4.04-3.03,5.61c-1.31,1.57-2.88,2.78-4.71,3.65
				s-3.86,1.3-6.08,1.3c-2.22,0-4.24-0.43-6.07-1.3c-1.83-0.86-3.39-2.08-4.7-3.65c-1.31-1.57-2.32-3.44-3.03-5.61
				c-0.72-2.17-1.07-4.56-1.07-7.16c0-2.6,0.36-4.99,1.07-7.16c0.72-2.17,1.73-4.05,3.03-5.62c1.31-1.58,2.87-2.8,4.7-3.67
				c1.83-0.87,3.85-1.31,6.07-1.31c2.22,0,4.24,0.44,6.08,1.31s3.4,2.1,4.71,3.67c1.31,1.58,2.32,3.45,3.03,5.62
				C1056.26,499.51,1056.62,501.9,1056.62,504.5z M1052.42,504.5c0-2.13-0.25-4.05-0.76-5.74c-0.51-1.7-1.22-3.13-2.15-4.3
				s-2.05-2.07-3.37-2.7c-1.32-0.63-2.79-0.95-4.42-0.95c-1.62,0-3.08,0.32-4.4,0.95c-1.32,0.63-2.45,1.53-3.38,2.7
				c-0.93,1.17-1.65,2.61-2.16,4.3c-0.51,1.7-0.76,3.61-0.76,5.74s0.25,4.04,0.76,5.73c0.5,1.69,1.22,3.12,2.16,4.29
				c0.93,1.17,2.06,2.07,3.38,2.69s2.79,0.93,4.4,0.93c1.63,0,3.1-0.31,4.42-0.93c1.32-0.62,2.44-1.52,3.37-2.69s1.64-2.6,2.15-4.29
				C1052.17,508.55,1052.42,506.64,1052.42,504.5z"/>
			<path class="st3" d="M1088.08,487.28c0.18,0.11,0.38,0.32,0.6,0.64l17.49,26.18c-0.04-0.42-0.07-0.83-0.08-1.22
				c-0.01-0.4-0.02-0.78-0.02-1.15v-24.6h3.58v34.73h-2.06c-0.32,0-0.59-0.06-0.81-0.19c-0.22-0.13-0.43-0.35-0.64-0.65
				l-17.46-26.15c0.03,0.4,0.05,0.8,0.06,1.19s0.02,0.74,0.02,1.07v24.75h-3.58v-34.73h2.11
				C1087.63,487.13,1087.9,487.18,1088.08,487.28z"/>
			<path class="st3" d="M1155.44,492.55c-0.13,0.24-0.26,0.42-0.4,0.55c-0.14,0.12-0.32,0.18-0.55,0.18c-0.24,0-0.52-0.14-0.83-0.41
				c-0.32-0.27-0.72-0.58-1.2-0.91c-0.48-0.33-1.07-0.63-1.75-0.91c-0.68-0.27-1.51-0.41-2.48-0.41c-0.91,0-1.72,0.14-2.42,0.42
				s-1.29,0.67-1.76,1.15c-0.47,0.48-0.83,1.05-1.06,1.71c-0.24,0.65-0.36,1.36-0.36,2.12c0,0.97,0.21,1.77,0.62,2.41
				s0.96,1.18,1.64,1.64c0.68,0.45,1.45,0.84,2.32,1.18c0.86,0.33,1.75,0.67,2.65,1.03c0.91,0.36,1.79,0.76,2.65,1.2
				c0.86,0.44,1.64,1.01,2.32,1.68c0.68,0.68,1.23,1.51,1.64,2.5s0.62,2.2,0.62,3.64c0,1.52-0.23,2.95-0.67,4.28
				s-1.11,2.49-1.97,3.48c-0.86,0.99-1.92,1.76-3.18,2.33s-2.69,0.85-4.29,0.85c-1.95,0-3.73-0.41-5.34-1.22
				c-1.61-0.82-2.98-1.92-4.12-3.31l1.18-2.23c0.11-0.18,0.25-0.33,0.41-0.45c0.16-0.12,0.34-0.18,0.54-0.18
				c0.29,0,0.63,0.18,1.01,0.54c0.38,0.36,0.85,0.76,1.42,1.2c0.57,0.44,1.26,0.84,2.06,1.2c0.81,0.36,1.79,0.55,2.96,0.55
				c0.97,0,1.83-0.15,2.59-0.46c0.76-0.31,1.4-0.74,1.93-1.3c0.53-0.56,0.93-1.22,1.21-2s0.42-1.64,0.42-2.59
				c0-1.05-0.21-1.91-0.62-2.58s-0.96-1.23-1.63-1.68c-0.67-0.45-1.44-0.84-2.31-1.15c-0.86-0.31-1.75-0.64-2.65-0.97
				s-1.79-0.72-2.65-1.15c-0.86-0.44-1.63-1-2.31-1.7c-0.67-0.69-1.22-1.56-1.63-2.61c-0.41-1.04-0.62-2.33-0.62-3.87
				c0-1.23,0.21-2.42,0.62-3.56c0.41-1.15,1.01-2.17,1.8-3.05c0.79-0.89,1.76-1.6,2.92-2.13c1.16-0.53,2.49-0.8,3.99-0.8
				c1.69,0,3.22,0.31,4.61,0.92c1.39,0.61,2.61,1.5,3.64,2.67L1155.44,492.55z"/>
		</g>
	</g>
	<g>
		<path class="st3" d="M280.59,510.53c0.15,0.43,0.29,0.86,0.43,1.3c0.14-0.45,0.29-0.88,0.44-1.3c0.15-0.41,0.33-0.83,0.53-1.25
			l10.22-21.35c0.18-0.37,0.37-0.6,0.57-0.68c0.2-0.08,0.48-0.12,0.84-0.12h3.01v34.73h-3.58v-25.52c0-0.34,0.01-0.7,0.02-1.09
			c0.01-0.39,0.04-0.78,0.06-1.19l-10.34,21.72c-0.35,0.73-0.84,1.09-1.47,1.09h-0.59c-0.63,0-1.12-0.36-1.47-1.09l-10.58-21.79
			c0.04,0.42,0.07,0.83,0.09,1.24c0.02,0.4,0.03,0.78,0.03,1.12v25.52h-3.58v-34.73h3.01c0.37,0,0.65,0.04,0.84,0.12
			c0.2,0.08,0.39,0.31,0.57,0.68l10.43,21.38C280.27,509.69,280.44,510.1,280.59,510.53z"/>
		<path class="st3" d="M350.73,521.86h-3.16c-0.37,0-0.66-0.1-0.88-0.31s-0.39-0.48-0.51-0.8l-2.82-8.39h-13.55l-2.82,8.39
			c-0.1,0.29-0.27,0.55-0.5,0.78c-0.24,0.23-0.53,0.34-0.88,0.34h-3.16l12.07-34.73h4.15L350.73,521.86z M330.95,508.96h11.27
			l-4.74-14.13c-0.31-0.87-0.61-1.96-0.91-3.27c-0.16,0.66-0.31,1.27-0.45,1.83c-0.15,0.56-0.29,1.05-0.43,1.47L330.95,508.96z"/>
		<path class="st3" d="M380.94,507.36v14.49h-4.07v-34.73h8.53c1.91,0,3.56,0.22,4.95,0.67s2.54,1.09,3.44,1.93
			c0.91,0.84,1.58,1.85,2.01,3.04s0.65,2.52,0.65,3.99c0,1.23-0.17,2.38-0.51,3.44s-0.83,2.02-1.46,2.87
			c-0.64,0.85-1.42,1.57-2.34,2.17c-0.92,0.6-1.96,1.05-3.13,1.36c0.51,0.34,0.96,0.83,1.35,1.48l8.81,13.79h-3.62
			c-0.74,0-1.29-0.33-1.64-0.99l-7.84-12.41c-0.24-0.39-0.5-0.67-0.78-0.84c-0.28-0.17-0.7-0.25-1.26-0.25H380.94z M380.94,503.95
			h4.28c1.19,0,2.24-0.17,3.15-0.5c0.91-0.33,1.66-0.8,2.27-1.41c0.61-0.61,1.07-1.33,1.38-2.17s0.46-1.77,0.46-2.79
			c0-2.07-0.59-3.63-1.78-4.68c-1.19-1.05-2.95-1.58-5.3-1.58h-4.47V503.95z"/>
		<path class="st3" d="M429.98,502.35h1.54c0.53,0,0.96-0.08,1.27-0.23c0.32-0.15,0.61-0.42,0.9-0.79l10.05-13.09
			c0.31-0.4,0.61-0.69,0.9-0.86c0.29-0.17,0.66-0.25,1.11-0.25h3.48l-11.5,14.95c-0.29,0.37-0.57,0.69-0.83,0.95
			c-0.26,0.26-0.54,0.47-0.83,0.63c0.39,0.15,0.74,0.36,1.03,0.65s0.6,0.65,0.93,1.09l12.01,16.46h-3.54
			c-0.27,0-0.49-0.02-0.67-0.07c-0.18-0.05-0.34-0.11-0.47-0.19c-0.13-0.08-0.26-0.19-0.37-0.31c-0.11-0.13-0.22-0.27-0.34-0.41
			l-10.43-13.79c-0.16-0.19-0.3-0.36-0.43-0.5c-0.13-0.14-0.29-0.25-0.46-0.35c-0.18-0.1-0.38-0.17-0.61-0.21
			c-0.23-0.04-0.52-0.06-0.85-0.06h-1.85v15.9h-4.07v-34.73h4.07V502.35z"/>
		<path class="st3" d="M494.7,487.13v3.83H480.2v11.54h11.73v3.68H480.2v11.85h14.49v3.83h-18.6v-34.73H494.7z"/>
		<path class="st3" d="M543.05,487.13v3.95h-9.75v30.78h-4.09v-30.78h-9.8v-3.95H543.05z"/>
		<path class="st3" d="M574.1,521.86h-4.09v-34.73h4.09V521.86z"/>
		<path class="st3" d="M607.01,487.28c0.18,0.11,0.38,0.32,0.6,0.64l17.49,26.18c-0.04-0.42-0.07-0.83-0.08-1.22
			c-0.01-0.4-0.02-0.78-0.02-1.15v-24.6h3.58v34.73h-2.06c-0.32,0-0.59-0.06-0.81-0.19c-0.22-0.13-0.43-0.35-0.64-0.65l-17.46-26.15
			c0.03,0.4,0.05,0.8,0.06,1.19s0.02,0.74,0.02,1.07v24.75h-3.58v-34.73h2.11C606.57,487.13,606.84,487.18,607.01,487.28z"/>
		<path class="st3" d="M671.32,518.44c0.81,0,1.56-0.04,2.24-0.13c0.68-0.09,1.32-0.22,1.93-0.4c0.6-0.18,1.17-0.39,1.71-0.64
			c0.53-0.25,1.07-0.54,1.6-0.86v-7.66h-4.68c-0.27,0-0.48-0.09-0.64-0.27s-0.24-0.4-0.24-0.65v-2.67h9.27v13.33
			c-0.76,0.63-1.55,1.18-2.37,1.65s-1.7,0.86-2.63,1.18c-0.93,0.31-1.94,0.55-3,0.7c-1.07,0.15-2.23,0.23-3.48,0.23
			c-2.19,0-4.2-0.43-6.03-1.3c-1.83-0.86-3.4-2.08-4.72-3.64s-2.35-3.43-3.09-5.61c-0.74-2.18-1.11-4.58-1.11-7.2
			c0-2.65,0.36-5.07,1.08-7.25c0.72-2.18,1.76-4.05,3.1-5.61c1.34-1.56,2.96-2.77,4.87-3.62c1.9-0.86,4.03-1.28,6.39-1.28
			c1.19,0,2.3,0.1,3.33,0.3c1.03,0.2,1.98,0.49,2.85,0.87c0.88,0.38,1.69,0.84,2.43,1.38c0.74,0.54,1.44,1.15,2.08,1.83l-1.16,2.13
			c-0.24,0.44-0.55,0.65-0.93,0.65c-0.22,0-0.47-0.09-0.74-0.27c-0.35-0.23-0.75-0.5-1.18-0.82c-0.44-0.32-0.97-0.63-1.59-0.93
			c-0.62-0.3-1.36-0.55-2.21-0.76s-1.86-0.32-3.02-0.32c-1.7,0-3.24,0.32-4.61,0.96c-1.38,0.64-2.55,1.55-3.52,2.74
			c-0.97,1.19-1.71,2.63-2.23,4.31c-0.52,1.69-0.78,3.58-0.78,5.68c0,2.2,0.27,4.16,0.81,5.88s1.3,3.18,2.29,4.37
			c0.98,1.2,2.15,2.11,3.5,2.74C668.2,518.12,669.69,518.44,671.32,518.44z"/>
	</g>
</g>
</svg>
