<?xml version="1.0" encoding="utf-8"?>
<!-- Generator: Adobe Illustrator 27.0.0, SVG Export Plug-In . SVG Version: 6.00 Build 0)  -->
<svg version="1.1" id="Layer_1" xmlns="http://www.w3.org/2000/svg" xmlns:xlink="http://www.w3.org/1999/xlink" x="0px" y="0px"
	 viewBox="0 0 1280 478.96" style="enable-background:new 0 0 1280 478.96;" xml:space="preserve">
<style type="text/css">
	.st0{fill:#C60000;}
	.st1{fill:#FFFFFF;}
	.st2{fill:#575757;}
	.st3{fill:#06204F;}
</style>
<path class="st1" d="M114.27,105.85H52.89v267.26h65.19V211.89L235.5,372.86V267.71L114.27,105.85z"/>
<path class="st1" d="M287.68,105.85v55.08h69.76v-0.18h141.04v-54.91H287.68z M287.63,215.39v47.46h60.67v-0.04H459v-47.41H287.63z
	 M287.68,318.2v54.91h210.8V318.2H287.68z"/>
<polygon class="st0" points="721.7,237.51 814.38,373.11 738.61,373.11 682.44,293.22 626.14,373.11 550.66,373.11 642.99,237.13 
	550.66,105.85 631.73,105.85 682.1,179.55 732.13,105.85 814.48,105.85 "/>
<path class="st1" d="M1047.84,58.29c-100.06,0-181.18,81.12-181.18,181.19s81.12,181.19,181.18,181.19
	c100.07,0,181.19-81.12,181.19-181.19S1147.91,58.29,1047.84,58.29z M1170.47,321.72c-1.16,8.86-4.03,17.63-8.76,25.82
	c-4.73,8.2-10.9,15.09-17.99,20.51c-7.37,5.65-15.76,9.71-24.59,12.1c-8.82,2.36-18.12,3.01-27.34,1.8
	c-8.86-1.16-17.63-4.04-25.83-8.76l-56.04-32.35c8.3-1.78,15.2-3.5,23.07-7.07c5.18-2.34,10.15-5.14,14.84-8.38l1.44-1l1.52,0.88
	l32.13,18.55h0.01c4.21,2.44,8.74,3.9,13.28,4.49c4.76,0.62,9.56,0.29,14.15-0.95c4.57-1.23,8.9-3.34,12.7-6.24
	c3.65-2.78,6.84-6.32,9.27-10.54h0.01c2.43-4.21,3.91-8.73,4.5-13.28c0.61-4.75,0.27-9.56-0.97-14.16
	c-1.22-4.57-3.32-8.89-6.23-12.69c-2.8-3.65-6.33-6.83-10.54-9.28l-30.44-17.57l-1.61-0.93l0.25-1.82c0.04-0.31,0.09-0.77,0.17-1.44
	l0.14-1.23v-34.42l4.18,2.42l33.72,19.46l1.4,0.81v0.06l9.14,5.3c8.2,4.72,15.07,10.89,20.51,17.98
	c5.64,7.38,9.72,15.75,12.09,24.59C1171.01,303.19,1171.67,312.5,1170.47,321.72z M1171.06,250.42l-4.73-4.64
	c-2.8-2.74-5.75-5.31-8.86-7.67c-3.1-2.34-6.36-4.51-9.76-6.47l-9.18-5.31l-1.4-0.81v-33.38c0-4.88-0.97-9.53-2.75-13.77
	c-1.83-4.42-4.54-8.4-7.88-11.76v0.02c-6.57-6.57-15.6-10.64-25.53-10.64c-4.87,0-9.52,0.98-13.77,2.75
	c-4.41,1.82-8.39,4.52-11.75,7.89l-0.01-0.02c-3.34,3.36-6.04,7.34-7.88,11.76c-1.77,4.24-2.74,8.89-2.74,13.77v56.51
	c0,9.45-1.91,18.5-5.34,26.74c-3.55,8.59-8.77,16.32-15.25,22.77c-6.45,6.47-14.18,11.69-22.76,15.24
	c-8.25,3.44-17.29,5.34-26.75,5.34c-9.45,0-18.5-1.9-26.75-5.34c-8.58-3.55-16.31-8.77-22.76-15.24
	c-6.48-6.45-11.69-14.18-15.25-22.77c-3.43-8.24-5.33-17.29-5.33-26.74V129.68l4.16,2.39l28.36,16.39l1.42,0.8v99.39
	c0,4.88,0.98,9.53,2.75,13.77c1.83,4.42,4.53,8.4,7.87,11.74h0.02c3.34,3.37,7.33,6.06,11.74,7.89c4.24,1.77,8.9,2.75,13.77,2.75
	c4.88,0,9.53-0.98,13.77-2.75c4.41-1.83,8.41-4.52,11.75-7.89h0.01c3.34-3.34,6.05-7.32,7.87-11.74c1.78-4.24,2.75-8.89,2.75-13.77
	v-56.51c0-9.45,1.9-18.48,5.33-26.74c3.56-8.59,8.79-16.32,15.25-22.77c6.47-6.46,14.19-11.69,22.77-15.25
	c8.26-3.43,17.29-5.33,26.75-5.33c9.45,0,18.5,1.9,26.75,5.33c8.58,3.56,16.31,8.79,22.77,15.25c6.45,6.45,11.68,14.18,15.24,22.77
	c3.44,8.26,5.33,17.29,5.33,26.74V250.42z"/>
</svg>
