<?xml version="1.0" standalone="no"?>
<!DOCTYPE svg PUBLIC "-//W3C//DTD SVG 20010904//EN"
 "http://www.w3.org/TR/2001/REC-SVG-20010904/DTD/svg10.dtd">
<svg version="1.0" xmlns="http://www.w3.org/2000/svg"
 width="7016.000000pt" height="9922.000000pt" viewBox="0 0 7016.000000 9922.000000"
 preserveAspectRatio="xMidYMid meet">

<g transform="translate(0.000000,9922.000000) scale(0.100000,-0.100000)"
fill="#000000" stroke="none">
<path d="M13516 78772 c-4 -3 -6 -1933 -6 -4289 l0 -4283 1640 0 1640 0 0
-2365 0 -2365 895 0 895 0 0 3055 0 3055 1135 0 1135 0 0 -991 0 -992 788 7
c433 3 1666 9 2740 12 l1952 7 0 4328 0 4329 -52 0 c-55 0 -12533 486 -12675
493 -45 3 -84 2 -87 -1z"/>
<path d="M18690 65755 l0 -3705 3805 0 3805 0 0 3705 0 3705 -3805 0 -3805 0
0 -3705z"/>
<path d="M43577 69313 c-4 -3 -7 -1581 -7 -3505 l0 -3498 3840 0 3840 0 0
-2045 0 -2045 875 0 875 0 0 2320 0 2320 1645 0 1645 0 -2 3228 -3 3227 -6351
3 c-3493 1 -6354 -1 -6357 -5z"/>
<path d="M43600 58440 l0 -3720 3800 0 3800 0 0 3720 0 3720 -3800 0 -3800 0
0 -3720z"/>
<path d="M16010 60125 l0 -1735 5160 0 5160 0 0 1735 0 1735 -5160 0 -5160 0
0 -1735z"/>
<path d="M16010 56440 l0 -1740 5165 0 5165 0 0 1740 0 1740 -5165 0 -5165 0
0 -1740z"/>
<path d="M16000 52765 l0 -1755 5160 0 5160 0 0 1755 0 1755 -5160 0 -5160 0
0 -1755z"/>
<path d="M43600 52765 l0 -1745 5175 0 5175 0 0 1745 0 1745 -5175 0 -5175 0
0 -1745z"/>
<path d="M43600 49090 l0 -1780 5178 2 5177 3 3 1778 2 1777 -5180 0 -5180 0
0 -1780z"/>
<path d="M15992 49083 l3 -1768 5158 -3 5157 -2 0 1770 0 1770 -5160 0 -5160
0 2 -1767z"/>
<path d="M16000 45390 l0 -1750 5160 0 5160 0 0 1750 0 1750 -5160 0 -5160 0
0 -1750z"/>
<path d="M43600 45390 l0 -1750 5180 0 5180 0 0 1750 0 1750 -5180 0 -5180 0
0 -1750z"/>
<path d="M43582 41233 l3 -2248 5183 -3 5182 -2 0 2250 0 2250 -5185 0 -5185
0 2 -2247z"/>
<path d="M16000 41151 c0 -1516 3 -2292 10 -2296 6 -4 10 23 10 74 l0 81 5155
0 5155 0 0 2215 0 2215 -5165 0 -5165 0 0 -2289z"/>
<path d="M22510 34730 l0 -4100 2950 0 2950 0 0 4100 0 4100 -2950 0 -2950 0
0 -4100z"/>
<path d="M28550 34730 l0 -4100 2045 0 2045 0 0 4100 0 4100 -2045 0 -2045 0
0 -4100z"/>
<path d="M32820 34730 l0 -4100 2055 0 2055 0 0 4100 0 4100 -2055 0 -2055 0
0 -4100z"/>
<path d="M37110 34730 l0 -4100 2050 0 2050 0 0 4100 0 4100 -2050 0 -2050 0
0 -4100z"/>
<path d="M41360 34730 l0 -4100 2960 0 2960 0 0 4100 0 4100 -2960 0 -2960 0
0 -4100z"/>
<path d="M21050 22970 l0 -5230 1788 2 1787 3 0 5225 0 5225 -1787 3 -1788 2
0 -5230z"/>
<path d="M24820 22965 l0 -5235 1785 0 1785 0 -2 5233 -3 5232 -1782 3 -1783
2 0 -5235z"/>
<path d="M32830 23595 l0 -4605 2085 0 2085 0 -2 4603 -3 4602 -2082 3 -2083
2 0 -4605z"/>
<path d="M37137 28193 c-4 -3 -7 -2076 -7 -4605 l0 -4598 2045 0 2045 0 0
4605 0 4605 -2038 0 c-1121 0 -2042 -3 -2045 -7z"/>
<path d="M41420 22970 l0 -5230 1780 0 1780 0 -2 5228 -3 5227 -1777 3 -1778
2 0 -5230z"/>
<path d="M45175 28188 c-3 -7 -4 -2362 -3 -5233 l3 -5220 1788 -3 1787 -2 -2
5232 -3 5233 -1783 3 c-1421 2 -1784 0 -1787 -10z"/>
<path d="M28590 23590 l0 -4600 2040 0 2040 0 0 4600 0 4600 -2040 0 -2040 0
0 -4600z"/>
<path d="M48932 22963 l3 -5218 3705 0 3705 0 3 5218 2 5217 -3710 0 -3710 0
2 -5217z"/>
<path d="M13340 22955 l0 -5215 3770 0 3770 0 0 5215 0 5215 -3770 0 -3770 0
0 -5215z"/>
</g>
</svg>
