<?xml version="1.0" standalone="no"?>
<!DOCTYPE svg PUBLIC "-//W3C//DTD SVG 20010904//EN"
 "http://www.w3.org/TR/2001/REC-SVG-20010904/DTD/svg10.dtd">
<svg version="1.0" xmlns="http://www.w3.org/2000/svg"
 width="7016.000000pt" height="9922.000000pt" viewBox="0 0 7016.000000 9922.000000"
 preserveAspectRatio="xMidYMid meet">

<g transform="translate(0.000000,9922.000000) scale(0.100000,-0.100000)"
fill="#000000" stroke="none">
<path d="M12804 77566 c-2 -6 -3 -1662 -2 -3681 l3 -3670 5420 0 5420 0 3
3362 2 3362 -52 5 c-29 3 -2449 145 -5378 316 -2929 170 -5344 311 -5368 314
-27 2 -45 -1 -48 -8z"/>
<path d="M45370 71390 l0 -4760 2380 0 2380 0 0 4700 c0 3752 -3 4701 -12
4705 -43 14 -1123 41 -2383 60 -1046 16 -1627 28 -2040 45 -132 5 -259 10
-282 10 l-43 0 0 -4760z"/>
<path d="M50420 71346 l0 -4706 2660 0 2660 0 0 4520 c0 3608 -3 4521 -12
4525 -19 6 -665 62 -978 85 -400 29 -846 55 -1620 95 -864 45 -1284 69 -1720
100 -322 24 -835 68 -942 81 l-48 7 0 -4707z"/>
<path d="M16050 67940 l0 -2040 3798 2 3797 3 3 2038 2 2037 -3800 0 -3800 0
0 -2040z"/>
<path d="M45370 64725 l0 -1765 5160 0 5160 0 0 1765 0 1765 -5160 0 -5160 0
0 -1765z"/>
<path d="M13330 63910 l0 -1760 5160 0 5160 0 -2 1758 -3 1757 -5157 3 -5158
2 0 -1760z"/>
<path d="M45370 60665 l0 -2125 3575 0 3575 0 0 2125 0 2125 -3575 0 -3575 0
0 -2125z"/>
<path d="M13320 60245 l0 -1735 5165 0 5165 0 -2 1733 -3 1732 -5162 3 -5163
2 0 -1735z"/>
<path d="M45370 56530 l0 -1710 5148 2 5147 3 3 828 2 827 -1575 0 -1575 0 0
880 0 880 -3575 0 -3575 0 0 -1710z"/>
<path d="M13320 56505 l0 -1715 5163 2 5162 3 3 1713 2 1712 -5165 0 -5165 0
0 -1715z"/>
<path d="M13322 52873 l3 -1728 5163 -3 5162 -2 0 1730 0 1730 -5165 0 -5165
0 2 -1727z"/>
<path d="M45370 52850 l0 -1730 5160 0 5160 0 0 1730 0 1730 -5160 0 -5160 0
0 -1730z"/>
<path d="M13315 50868 c-3 -7 -4 -769 -3 -1693 l3 -1680 5165 0 5165 0 0 1690
0 1690 -5163 3 c-4125 2 -5164 0 -5167 -10z"/>
<path d="M45370 49135 l0 -1725 5165 0 5165 0 0 1725 0 1725 -5165 0 -5165 0
0 -1725z"/>
<path d="M13320 45315 l0 -1845 5165 0 5165 0 0 1845 0 1845 -5165 0 -5165 0
0 -1845z"/>
<path d="M45370 45300 l0 -1850 5158 2 5157 3 3 1848 2 1847 -5160 0 -5160 0
0 -1850z"/>
<path d="M13332 41308 l3 -1793 5155 0 5155 0 3 1793 2 1792 -5160 0 -5160 0
2 -1792z"/>
<path d="M45370 41280 l0 -1790 5160 0 5160 0 0 1790 0 1790 -5160 0 -5160 0
0 -1790z"/>
<path d="M45370 37385 l0 -1795 5165 0 5165 0 0 1795 0 1795 -5165 0 -5165 0
0 -1795z"/>
<path d="M13335 39138 c-3 -7 -4 -803 -3 -1768 l3 -1755 5155 0 5155 0 0 1765
0 1765 -5153 3 c-4117 2 -5154 0 -5157 -10z"/>
<path d="M22140 27790 l0 -7550 2905 0 2905 0 0 7550 0 7550 -2905 0 -2905 0
0 -7550z"/>
<path d="M40950 27790 l0 -7550 2905 0 2905 0 0 7550 0 7550 -2905 0 -2905 0
0 -7550z"/>
<path d="M13110 24505 l0 -4265 4375 0 4375 0 0 4265 0 4265 -4375 0 -4375 0
0 -4265z"/>
<path d="M47022 24503 l3 -4258 4380 0 4380 0 3 4258 2 4257 -4385 0 -4385 0
2 -4257z"/>
</g>
</svg>
