<?xml version="1.0" standalone="no"?>
<!DOCTYPE svg PUBLIC "-//W3C//DTD SVG 20010904//EN"
 "http://www.w3.org/TR/2001/REC-SVG-20010904/DTD/svg10.dtd">
<svg version="1.0" xmlns="http://www.w3.org/2000/svg"
 width="7016.000000pt" height="9922.000000pt" viewBox="0 0 7016.000000 9922.000000"
 preserveAspectRatio="xMidYMid meet">

<g transform="translate(0.000000,9922.000000) scale(0.100000,-0.100000)"
fill="#000000" stroke="none">
<path d="M13400 73891 l0 -3599 2043 -6 c1123 -4 2321 -6 2662 -4 l620 3 3
3512 2 3511 -112 6 c-62 4 -1220 42 -2573 86 -1353 43 -2502 82 -2552 84 l-93
5 0 -3598z"/>
<path d="M18874 73740 l7 -3550 -1091 0 -1090 0 2 -2162 3 -2163 3675 0 3675
0 3 5607 2 5606 -62 6 c-59 5 -5039 207 -5102 206 l-29 0 7 -3550z"/>
<path d="M45535 76222 c-3 -3 -5 -2169 -5 -4814 l0 -4808 2520 0 2520 0 0
4710 0 4710 -32 0 c-38 0 -4816 197 -4925 203 -40 2 -75 2 -78 -1z"/>
<path d="M50742 71299 l3 -4704 2725 0 2725 0 3 4588 c2 3665 0 4588 -10 4591
-7 2 -1190 52 -2628 110 -1438 59 -2661 110 -2718 113 l-102 6 2 -4704z"/>
<path d="M45520 64665 l0 -1745 5323 2 5322 3 3 1743 2 1742 -5325 0 -5325 0
0 -1745z"/>
<path d="M16707 65683 c-4 -3 -7 -408 -7 -900 l0 -893 -1635 0 -1635 0 0 -860
0 -860 5325 0 5325 0 -2 1758 -3 1757 -3681 3 c-2024 1 -3684 -1 -3687 -5z"/>
<path d="M45520 60630 l0 -2130 3708 2 3707 3 3 2128 2 2127 -3710 0 -3710 0
0 -2130z"/>
<path d="M13430 60230 l0 -1760 5325 0 5325 0 -2 1758 -3 1757 -5322 3 -5323
2 0 -1760z"/>
<path d="M45520 56560 l0 -1750 5285 0 5285 0 0 845 0 845 -1585 0 -1585 0 -2
903 -3 902 -3697 3 -3698 2 0 -1750z"/>
<path d="M13435 58278 c-3 -7 -4 -800 -3 -1763 l3 -1750 5320 0 5320 0 0 1760
0 1760 -5318 3 c-4249 2 -5319 0 -5322 -10z"/>
<path d="M13435 54618 c-3 -7 -4 -800 -3 -1763 l3 -1750 5320 0 5320 0 0 1760
0 1760 -5318 3 c-4249 2 -5319 0 -5322 -10z"/>
<path d="M45520 52865 l0 -1765 5320 0 5320 0 0 1765 0 1765 -5320 0 -5320 0
0 -1765z"/>
<path d="M13435 50908 c-3 -7 -4 -789 -3 -1738 l3 -1725 5320 0 5320 0 0 1735
0 1735 -5318 3 c-4249 2 -5319 0 -5322 -10z"/>
<path d="M45520 49180 l0 -1740 5320 0 5320 0 0 1740 0 1740 -5320 0 -5320 0
0 -1740z"/>
<path d="M13437 47233 c-4 -3 -7 -865 -7 -1915 l0 -1908 5325 0 5325 0 -2
1913 -3 1912 -5316 3 c-2924 1 -5319 -1 -5322 -5z"/>
<path d="M45520 45325 l0 -1915 5320 0 5320 0 0 1915 0 1915 -5320 0 -5320 0
0 -1915z"/>
<path d="M13430 41275 l0 -1935 5325 0 5325 0 0 1935 0 1935 -5325 0 -5325 0
0 -1935z"/>
<path d="M45520 41275 l0 -1935 5320 0 5320 0 0 1935 0 1935 -5320 0 -5320 0
0 -1935z"/>
<path d="M13432 37393 l3 -1778 5320 0 5320 0 0 1775 0 1775 -5323 3 -5322 2
2 -1777z"/>
<path d="M45520 37390 l0 -1780 5320 0 5320 0 0 1780 0 1780 -5320 0 -5320 0
0 -1780z"/>
<path d="M22450 27780 l0 -7640 3008 2 3007 3 0 7635 0 7635 -3007 3 -3008 2
0 -7640z"/>
<path d="M41130 27780 l0 -7640 3008 2 3007 3 3 7638 2 7637 -3010 0 -3010 0
0 -7640z"/>
<path d="M13422 24553 l3 -4408 4395 0 4395 0 3 4408 2 4407 -4400 0 -4400 0
2 -4407z"/>
<path d="M47380 24550 l0 -4410 4395 0 4395 0 0 4410 0 4410 -4395 0 -4395 0
0 -4410z"/>
</g>
</svg>
